<?xml version="1.0" encoding="UTF-8" standalone="no"?>
<svg
   xml:space="preserve"
   width="62"
   height="62"
   version="1.1"
   id="svg5"
   sodipodi:docname="cachyos-pi.svg"
   inkscape:version="1.4.4 (unknown)"
   xmlns:inkscape="http://www.inkscape.org/namespaces/inkscape"
   xmlns:sodipodi="http://sodipodi.sourceforge.net/DTD/sodipodi-0.dtd"
   xmlns:xlink="http://www.w3.org/1999/xlink"
   xmlns="http://www.w3.org/2000/svg"
   xmlns:svg="http://www.w3.org/2000/svg"><sodipodi:namedview
     id="namedview5"
     pagecolor="#ffffff"
     bordercolor="#000000"
     borderopacity="0.25"
     inkscape:showpageshadow="2"
     inkscape:pageopacity="0.0"
     inkscape:pagecheckerboard="0"
     inkscape:deskcolor="#d1d1d1"
     inkscape:zoom="5.8593749"
     inkscape:cx="22.186667"
     inkscape:cy="29.781334"
     inkscape:window-width="1920"
     inkscape:window-height="996"
     inkscape:window-x="0"
     inkscape:window-y="0"
     inkscape:window-maximized="1"
     inkscape:current-layer="svg5" /><defs
     id="defs5"><linearGradient
       id="linearGradient5"
       inkscape:collect="always"><stop
         style="stop-color:#065543;stop-opacity:1;"
         offset="0"
         id="stop6" /><stop
         style="stop-color:#0ba683;stop-opacity:1;"
         offset="0.48801318"
         id="stop8" /><stop
         style="stop-color:#065543;stop-opacity:1;"
         offset="1"
         id="stop7" /></linearGradient><linearGradient
       id="a"><stop
         offset="0"
         style="stop-color:#065142;stop-opacity:1"
         id="stop1" /><stop
         offset=".5"
         style="stop-color:#038550;stop-opacity:1"
         id="stop2" /><stop
         offset="1"
         style="stop-color:#065543;stop-opacity:1"
         id="stop3" /></linearGradient><linearGradient
       id="b"
       x1="7.9369998"
       x2="7.9369998"
       y1="15.081"
       y2="1.852"
       gradientTransform="matrix(3.7795,0,0,3.7795,0,0.032)"
       gradientUnits="userSpaceOnUse"><stop
         offset="0"
         stop-color="#292929"
         id="stop4" /><stop
         offset="1"
         stop-color="#4d4d4d"
         id="stop5" /></linearGradient><linearGradient
       xlink:href="#a"
       id="c"
       x1="-45.293999"
       x2="-6.4840002"
       y1="32"
       y2="32"
       gradientTransform="matrix(0.33496526,0,0,0.33467202,16.671916,-2.7095037)"
       gradientUnits="userSpaceOnUse" /><linearGradient
       inkscape:collect="always"
       xlink:href="#linearGradient5"
       id="linearGradient7"
       x1="1.4999996"
       y1="8"
       x2="14.5"
       y2="8"
       gradientUnits="userSpaceOnUse"
       gradientTransform="matrix(4.3076916,0,0,4.3076916,-3.4615324,-3.4615317)" /></defs><path
     d="m 9.2262349,49.583055 -6.2262311,-9.414062 9.2260752,0.01163 9.224631,0.01292 5.703893,8.686026 c 3.136923,4.777673 5.910226,9.010402 6.161296,9.403975 l 0.460297,0.716456 H 15.451021 Z M 31.942232,49.356729 c -3.369234,-5.009776 -6.156968,-9.209349 -6.195927,-9.334768 -0.0388,-0.12544 3.343262,-3.598397 7.51765,-7.721558 l 7.589796,-7.495212 3.070548,0.0043 3.070548,0.0043 5.126722,7.738854 c 2.820918,4.255795 5.164237,7.871488 5.208964,8.035839 0.05919,0.216247 -13.648645,12.956232 -18.791237,17.462874 -0.455963,0.399323 -0.692607,0.0865 -6.597064,-8.693232 M 10.979389,30.01245 5.7155937,22.099156 15.401961,13.261754 C 23.488124,5.8833204 25.141718,4.4791379 25.408657,4.7645914 25.58327,4.952019 28.43159,9.1198572 31.734453,14.027278 l 6.008347,8.919575 -7.650398,7.49233 -7.650399,7.492328 -3.09941,-0.0029 -3.099405,-0.0043 z m -6.2954904,6.748427 c 0.1327501,-0.23787 1.0648803,-1.247042 2.0720431,-2.241789 l 1.8325196,-1.807844 1.4097369,2.114922 c 0.7748528,1.163424 1.4082978,2.172583 1.4082978,2.241789 0,0.06918 -1.5655755,0.126862 -3.4803405,0.126862 -3.2408126,0 -3.4644653,-0.02886 -3.2422569,-0.433943 M 50.838803,26.787436 49.338158,24.557185 h 7.566711 l -2.22211,2.230251 c -1.222161,1.225418 -2.248081,2.230256 -2.282711,2.230256 -0.03317,0 -0.735891,-1.003399 -1.561245,-2.230256 M 34.628964,12.725446 A 2067.7144,2065.9043 0 0 1 28.425822,3.3099399 C 28.280097,3.0648753 30.140017,3.0000015 37.399383,3.0000015 h 9.156812 l 6.221901,9.4155065 6.2219,9.41695 H 40.645969 Z"
     id="path5"
     style="fill:url(#linearGradient7);stroke-width:4.30769" /></svg>
