<?xml version="1.0" encoding="UTF-8" standalone="no"?>
<!-- Generator: Adobe Illustrator 22.1.0, SVG Export Plug-In . SVG Version: 6.00 Build 0)  -->

<svg
   version="1.0"
   x="0px"
   y="0px"
   viewBox="0 0 62 62"
   xml:space="preserve"
   id="svg7"
   sodipodi:docname="com.thincast.client.rdwebaccess.svg"
   width="62"
   height="62"
   inkscape:version="1.4.4 (unknown)"
   xmlns:inkscape="http://www.inkscape.org/namespaces/inkscape"
   xmlns:sodipodi="http://sodipodi.sourceforge.net/DTD/sodipodi-0.dtd"
   xmlns="http://www.w3.org/2000/svg"
   xmlns:svg="http://www.w3.org/2000/svg"><defs
   id="defs7">
	
	

	
	
	

		
	</defs><sodipodi:namedview
   id="namedview7"
   pagecolor="#ffffff"
   bordercolor="#000000"
   borderopacity="0.25"
   inkscape:showpageshadow="2"
   inkscape:pageopacity="0.0"
   inkscape:pagecheckerboard="0"
   inkscape:deskcolor="#d1d1d1"
   inkscape:zoom="11.313709"
   inkscape:cx="28.814601"
   inkscape:cy="29.477514"
   inkscape:window-width="1920"
   inkscape:window-height="994"
   inkscape:window-x="0"
   inkscape:window-y="0"
   inkscape:window-maximized="1"
   inkscape:current-layer="svg7" />
<style
   type="text/css"
   id="style1">
	.st0{fill:#0092FF;}
	.st1{fill:#A6192E;}
	.st2{opacity:0.33;fill:none;}
	.st3{display:none;opacity:0.33;fill:none;}
	.st4{opacity:0.1;}
	.st5{fill:#1D1D1B;}
	.st6{fill:#FFFFFF;}
	.st7{fill:#231F20;}
	.st8{fill:#939598;}
	.st9{display:none;}
	.st10{fill:#BCBEC0;}
	.st11{fill:#E6E7E8;}
	.st12{display:inline;}
	.st13{display:inline;opacity:0.1;}
	.st14{fill:#FFFF00;}
	.st15{fill:#FF00FF;}
	.st16{fill:#00FFFF;}
	.st17{clip-path:url(#SVGID_2_);}
	.st18{clip-path:url(#SVGID_4_);fill:#AA182C;}
	.st19{opacity:0.1;fill:#231F20;}
	.st20{display:inline;fill:#FFFFFF;}
</style>
<circle
   class="st3"
   cx="16"
   cy="16"
   r="16"
   id="circle1" />
<g
   id="lock">
	<g
   id="Layer_1">
		<g
   id="g6">
			<g
   class="st9"
   id="g5">
				<polygon
   class="st6"
   points="15.2,15.3 14.7,18.9 15.9,18.9 15.9,15.3 "
   id="polygon1" />
				<polygon
   class="st6"
   points="16.8,15.3 15.9,15.3 15.9,18.9 17.3,18.9 "
   id="polygon2" />
				<path
   class="st6"
   d="m 15.9,13.1 c -0.7,0 -1.2,0.6 -1.2,1.3 0,0.3 0.1,0.6 0.3,0.8 h 0.9 z"
   id="path2" />
				<path
   class="st6"
   d="m 15,15.2 c 0.2,0.3 0.5,0.4 0.9,0.5 v -0.5 z"
   id="path3" />
				<path
   class="st6"
   d="m 17.3,14.4 c 0,-0.7 -0.6,-1.3 -1.3,-1.3 0,0 -0.1,0 -0.1,0 v 2.1 H 17 c 0.2,-0.3 0.3,-0.5 0.3,-0.8 z"
   id="path4" />
				<path
   class="st6"
   d="m 15.9,15.2 v 0.5 c 0,0 0.1,0 0.1,0 0.4,0 0.8,-0.2 1,-0.5 z"
   id="path5" />
			</g>
		</g>
	</g>
</g>
<g
   id="program">
</g>
<g
   id="overview">
</g>
<g
   id="performance_copy">
</g>
<g
   id="device">
</g>
<g
   id="microphone">
</g>
<g
   id="speaker1"
   class="st9">
</g>
<g
   id="speaker2"
   class="st9">
</g>
<g
   id="speaker3">
</g>
<g
   id="colors">
</g>
<g
   id="monitor">
</g>
<g
   id="user">
</g>
<g
   id="settings">
</g>
<g
   id="keyboard">
</g>
<g
   id="Layer_17">
</g>
<circle
   class="st2"
   cx="125.76764"
   cy="-6.385469"
   r="16"
   id="circle6" /><path
   class="st7"
   d="m 148.35889,-12.567565 c -0.18732,0.562005 -0.18732,1.124016 -0.37464,1.686022 -2.81004,10.30349874 -11.05286,18.3589565 -21.35634,20.981663 -2.24803,0.562009 -4.49607,0.936683 -6.74411,0.936683 -0.56202,-0.374674 -0.93668,-0.936683 -1.31135,-1.3113535 -0.56201,-0.374674 -1.12403,-0.936683 -1.4987,-1.498692 -0.562,-0.374671 -1.12401,-0.93668 -1.49867,-1.498689 -0.56202,-0.374672 -1.12402,-0.936682 -1.49871,-1.498689 -0.562,-0.374673 -1.12402,-0.936682 -1.49868,-1.498691 -0.56201,-0.374672 -1.12401,-0.936681 -1.49871,-1.49869 -0.562,-0.374672 -1.124,-0.936681 -1.49867,-1.49869046 -0.56202,-0.374671 -1.12402,-0.9366806 -1.4987,-1.498689 -0.56201,-0.37467294 -1.12401,-0.93668144 -1.49868,-1.49868994 -0.56202,-0.3746721 -1.12402,-0.9366813 -1.49869,-1.4986897 -0.56202,-0.3746733 -1.12403,-0.9366806 -1.49869,-1.4986903 -0.56202,-0.3746721 -1.12402,-0.9366813 -1.49869,-1.4986897 -1.68604,-1.3113517 -2.997384,-3.3720534 -2.997384,-5.6200874 0,-3.934055 3.184704,-6.931435 6.931434,-6.931435 h 0.18735 c 0,0 0,-0.18734 0,-0.18734 0,-3.93406 3.18471,-6.931442 6.93143,-6.931442 0.93668,0 1.87337,0.187332 2.62271,0.562012 2.0607,-2.997382 5.43275,-4.870746 9.3668,-4.870746 3.5594,0 6.55678,1.498698 8.61749,4.1214 0.56201,0.562 1.12401,0.936672 1.49868,1.498692 0.56201,0.562006 1.12401,0.936672 1.49869,1.49869 0.562,0.562 1.12401,0.936672 1.49867,1.498684 0.56205,0.562 1.12405,0.93668 1.49873,1.498698 0.56201,0.562 1.12401,0.936672 1.49867,1.498672 0.562,0.562012 1.12401,0.936692 1.49868,1.498709 0.562,0.562001 1.12401,0.936672 1.49874,1.498674 0.562,0.562013 1.12401,0.936693 1.49866,1.498706 0.562,0.562004 1.124,0.936673 1.49868,1.498677 0.37468,-0.187336 0.74936,0.187343 1.124,0.562012 z"
   id="path6"
   style="opacity:0.1;stroke-width:1.87346" /><path
   class="st6"
   d="m 135.62005,-19.686343 c 0,-0.374672 0,-0.562006 0,-0.936672 0,-6.18211 -5.05808,-11.240182 -11.24017,-11.240182 -3.93408,0 -7.30613,1.873364 -9.1795,4.870746 -0.74932,-0.37468 -1.68601,-0.562012 -2.81003,-0.562012 -3.93406,0 -6.93144,3.184714 -6.93144,6.931448 0,0 0,0.187334 0,0.187334 0,0 0,0 -0.18734,0 -3.74671,0 -6.93144,3.184706 -6.93144,7.118768 0,3.9340687 3.18473,6.931444 6.93144,6.931444 v 0 0 c 0,0 0,0 0,0 0,0 0,0 0,0 h 8.99214 c 0.56201,0 0.93667,-0.3746716 0.93667,-0.9366813 V -19.499003 c 0,-0.562012 0.3747,-0.936678 0.9367,-0.936678 h 8.05545 c 0.56201,0 0.93667,0.374666 0.93667,0.936678 v 12.1768527 c 0,0.5620097 0.37469,0.9366813 0.93669,0.9366813 h 6.74412 c 0,0 0,0 0,0 0,0 0,0 0,0 v 0 0 c 3.93405,0 6.93145,-3.1847156 6.93145,-6.931444 0,-2.99737 -1.68607,-5.432739 -4.12141,-6.36943 z"
   id="path7"
   style="stroke-width:1.87346" />
<g
   id="group">
</g>
<g
   id="server">
</g>
<g
   id="g12"><ellipse
     style="opacity:0.2;stroke-width:0.9823"
     cx="31"
     cy="31.491228"
     id="circle1-3"
     rx="27.5"
     ry="27.508772" /><ellipse
     style="fill:#3485fd;stroke-width:0.9823"
     cx="31"
     cy="30.508772"
     id="circle2"
     rx="27.5"
     ry="27.508772" /><path
     style="opacity:0.2;fill:#ffffff;stroke-width:0.9823"
     d="M 31,3 A 27.5,27.508772 0 0 0 3.4999999,30.508772 27.5,27.508772 0 0 0 3.5211007,31.08443 27.5,27.508772 0 0 1 31,3.9824562 27.5,27.508772 0 0 1 58.4789,30.91557 27.5,27.508772 0 0 0 58.5,30.508772 27.5,27.508772 0 0 0 31,3 Z"
     id="path4-5" /><g
     id="g11"
     transform="matrix(1.0006246,0,0,0.99999155,-5.5720088,60.601684)"><path
       class="st7"
       d="m 63.732202,-25.461522 c -0.183387,0.544269 -0.183375,1.088545 -0.366771,1.632816 -2.563698,10.565676 -10.121424,17.7795816 -20.208751,20.3195217 -2.20087,0.5442735 -4.40175,0.9071233 -6.602621,0.9071233 -0.55023,-0.3628498 -0.917033,-0.9071233 -1.283846,-1.2699701 -0.55022,-0.3628506 -1.100441,-0.9071233 -1.467254,-1.4513968 -0.55021,-0.3628468 -1.10043,-0.9071194 -1.467233,-1.451393 -0.55023,-0.3628487 -1.10044,-0.9071223 -1.467264,-1.4513939 -0.55021,-0.3628488 -1.10044,-0.9071223 -1.467243,-1.451395 -0.55022,-0.3628492 -1.10043,-0.9071212 -1.467264,-1.4513952 -0.55021,-0.362851 -1.10042,-0.907125 -1.467233,-1.451398 -0.55023,-0.362841 -1.10044,-0.907116 -1.467254,-1.451389 -0.55022,-0.362852 -1.10043,-0.907124 -1.467243,-1.451398 -0.55023,-0.362842 -1.10044,-0.907116 -1.467253,-1.45139 -0.550221,-0.362852 -1.100441,-0.907123 -1.467244,-1.451398 -0.55023,-0.362842 -1.10044,-0.907116 -1.467253,-1.451389 -1.650661,-1.269975 -2.934501,-3.265641 -2.934501,-5.442733 0,-3.809907 3.117897,-6.712695 6.786021,-6.712695 h 0.183417 v -0.181425 c 0,-3.809912 3.117903,-6.712702 6.786017,-6.712702 0.917033,0 1.834067,0.181426 2.567693,0.544277 2.017464,-2.90279 5.318774,-4.717033 9.170294,-4.717033 3.484727,0 6.419224,1.451397 8.436698,3.991337 0.55022,0.544265 1.10043,0.907116 1.467243,1.451392 0.55022,0.54427 1.10043,0.907115 1.467244,1.451398 0.55021,0.544265 1.10043,0.907116 1.467233,1.451392 0.55026,0.544265 1.10047,0.907115 1.467284,1.451398 0.55022,0.544265 1.10043,0.907116 1.467233,1.45138 0.55021,0.544277 1.10043,0.907127 1.467243,1.451409 0.55021,0.544265 1.100427,0.907116 1.467294,1.451382 0.55021,0.544278 1.10043,0.907128 1.467223,1.451406 0.55021,0.544268 1.10042,0.907117 1.467234,1.451385 0.366823,-0.181421 0.03407,0.181428 0.400857,0.544277 z"
       id="path6-5"
       style="opacity:0.1;fill:#231f20;stroke-width:1.82419"
       sodipodi:nodetypes="ccccccccccccccccsscsscsccccccccccc" /><path
       class="st6"
       d="m 52.957474,-31.111045 c 0,-0.367653 0,-0.551473 0,-0.91912 0,-6.066238 -5.005917,-11.029513 -11.124265,-11.029513 -3.893507,0 -7.230787,1.838251 -9.084838,4.779454 -0.741598,-0.367652 -1.668624,-0.551479 -2.781054,-0.551479 -3.893497,0 -6.859968,3.12503 -6.859968,6.801538 0,0 0,0.18382 0,0.18382 0,0 0,0 -0.185405,0 -3.708079,0 -6.859967,3.125022 -6.859967,6.985353 0,3.860329 3.151888,6.801525 6.859967,6.801525 v 0 0 c 0,0 0,0 0,0 0,0 0,0 0,0 h 8.899412 c 0.556215,0 0.927015,-0.367644 0.927015,-0.91912 v -11.948632 c 0,-0.551479 0.370831,-0.919126 0.927037,-0.919126 h 7.972386 c 0.556216,0 0.927015,0.367647 0.927015,0.919126 v 11.948632 c 0,0.551476 0.370822,0.91912 0.927027,0.91912 h 6.674581 c 0,0 0,0 0,0 0,0 0,0 0,0 v 0 0 c 3.893476,0 6.859967,-3.125023 6.859967,-6.801525 0,-2.9412 -1.668677,-5.330923 -4.07891,-6.250053 z"
       id="path7-6"
       style="fill:#ffffff;stroke-width:1.8462" /></g></g></svg>
