<?xml version="1.0" encoding="UTF-8" standalone="no"?>
<svg
   width="62"
   height="62"
   version="1.1"
   id="svg8"
   sodipodi:docname="eqmenu.svg"
   inkscape:version="1.4.4 (unknown)"
   xmlns:inkscape="http://www.inkscape.org/namespaces/inkscape"
   xmlns:sodipodi="http://sodipodi.sourceforge.net/DTD/sodipodi-0.dtd"
   xmlns="http://www.w3.org/2000/svg"
   xmlns:svg="http://www.w3.org/2000/svg">
  <defs
     id="defs8" />
  <sodipodi:namedview
     id="namedview8"
     pagecolor="#ffffff"
     bordercolor="#000000"
     borderopacity="0.25"
     inkscape:showpageshadow="2"
     inkscape:pageopacity="0.0"
     inkscape:pagecheckerboard="0"
     inkscape:deskcolor="#d1d1d1"
     inkscape:zoom="7.8854167"
     inkscape:cx="34.68428"
     inkscape:cy="23.778071"
     inkscape:window-width="1920"
     inkscape:window-height="994"
     inkscape:window-x="0"
     inkscape:window-y="0"
     inkscape:window-maximized="1"
     inkscape:current-layer="svg8" />
  <g
     id="g8"
     transform="matrix(1.3170732,0,0,1.3170732,1.365853,-1.2682934)">
    <path
       style="opacity:0.2"
       d="M 7,5 C 5.892,5 5.0614608,5.8937059 5,7 v 18 18 c 0,1.108 0.892,2 2,2 H 24 C 35.045695,45 44,36.045695 44,25 44,13.954305 35.045695,5 24,5 Z"
       id="path1" />
    <path
       style="fill:#dbdee3"
       d="M 7,4 C 5.892,4 5.0614608,4.8937059 5,6 v 18 18 c 0,1.108 0.892,2 2,2 H 24 C 35.045695,44 44,35.045695 44,24 44,12.954305 35.045695,4 24,4 Z"
       id="path2" />
    <path
       style="opacity:0.5;fill:#6f7c91"
       d="m 24,10 a 14,14 0 0 0 -14,14 14,14 0 0 0 14,14 14,14 0 0 0 7.988281,-2.509766 l 2.8125,2.109375 a 2.0002,2.0002 0 1 0 2.398438,-3.199218 L 34.955078,32.716797 A 14,14 0 0 0 38,24 14,14 0 0 0 24,10 Z m 0,4 A 10,10 0 0 1 34,24 10,10 0 0 1 24,34 10,10 0 0 1 14,24 10,10 0 0 1 24,14 Z"
       id="path3" />
    <rect
       style="opacity:0.1"
       width="17"
       height="6"
       x="1"
       y="22"
       rx="1.308"
       ry="0.85699999"
       id="rect3" />
    <rect
       style="fill:#535d6c"
       width="17"
       height="6"
       x="1"
       y="21"
       rx="1.308"
       ry="0.85699999"
       id="rect4" />
    <rect
       style="opacity:0.1"
       width="17"
       height="6"
       x="1"
       y="13"
       rx="1.308"
       ry="0.85699999"
       id="rect5" />
    <rect
       style="fill:#535d6c"
       width="17"
       height="6"
       x="1"
       y="12"
       rx="1.308"
       ry="0.85699999"
       id="rect6" />
    <rect
       style="opacity:0.1"
       width="17"
       height="6"
       x="1"
       y="31"
       rx="1.308"
       ry="0.85699999"
       id="rect7" />
    <rect
       style="fill:#535d6c"
       width="17"
       height="6"
       x="1"
       y="30"
       rx="1.308"
       ry="0.85699999"
       id="rect8" />
    <path
       style="opacity:0.2;fill:#ffffff"
       d="M 7,4 C 5.892,4 5.0614608,4.8937059 5,6 V 7 C 5.0614608,5.8937059 5.892,5 7,5 H 24 C 34.878024,5 43.722116,13.686064 43.988281,24.5 43.992384,24.333316 44,24.167671 44,24 44,12.954305 35.045695,4 24,4 Z"
       id="path8" />
  </g>
</svg>
