<?xml version="1.0" encoding="UTF-8" standalone="no"?>
<svg
   width="64"
   height="64"
   version="1.1"
   id="svg8"
   sodipodi:docname="org.getmonero.Monero.svg"
   inkscape:version="1.4.3 (unknown)"
   xmlns:inkscape="http://www.inkscape.org/namespaces/inkscape"
   xmlns:sodipodi="http://sodipodi.sourceforge.net/DTD/sodipodi-0.dtd"
   xmlns:xlink="http://www.w3.org/1999/xlink"
   xmlns="http://www.w3.org/2000/svg"
   xmlns:svg="http://www.w3.org/2000/svg">
  <sodipodi:namedview
     id="namedview8"
     pagecolor="#ffffff"
     bordercolor="#000000"
     borderopacity="0.25"
     inkscape:showpageshadow="2"
     inkscape:pageopacity="0.0"
     inkscape:pagecheckerboard="0"
     inkscape:deskcolor="#d1d1d1"
     inkscape:zoom="5.6936828"
     inkscape:cx="51.197092"
     inkscape:cy="51.109275"
     inkscape:window-width="1920"
     inkscape:window-height="994"
     inkscape:window-x="0"
     inkscape:window-y="0"
     inkscape:window-maximized="1"
     inkscape:current-layer="svg8" />
  <defs
     id="defs3">
    <linearGradient
       id="linearGradient1"
       inkscape:collect="always">
      <stop
         style="stop-color:#2d3d53;stop-opacity:1;"
         offset="0"
         id="stop1" />
      <stop
         style="stop-color:#2d3d53;stop-opacity:1;"
         offset="0.44122055"
         id="stop3" />
      <stop
         style="stop-color:#ff8533;stop-opacity:1;"
         offset="0.44122055"
         id="stop4" />
      <stop
         style="stop-color:#ff8533;stop-opacity:1;"
         offset="1"
         id="stop2" />
    </linearGradient>
    <clipPath
       id="clipPath922">
      <circle
         cx="24"
         cy="24"
         r="20"
         id="circle1" />
    </clipPath>
    <clipPath
       id="clipPath934">
      <circle
         cx="24"
         cy="24"
         r="20"
         id="circle2" />
    </clipPath>
    <clipPath
       id="clipPath942">
      <circle
         cx="24"
         cy="23"
         r="20"
         id="circle3" />
    </clipPath>
    <clipPath
       id="clipPath833">
      <path
         d="M 2,31 H 14 V 21 L 24,31 34,21 V 31 H 46 V 2 H 2 Z"
         id="path3" />
    </clipPath>
    <clipPath
       id="clipPath833-7">
      <path
         d="M 2,31 H 14 V 21 L 24,31 34,21 V 31 H 46 V 2 H 2 Z"
         id="path3-5" />
    </clipPath>
    <clipPath
       id="clipPath942-3">
      <circle
         cx="24"
         cy="23"
         r="20"
         id="circle3-5" />
    </clipPath>
    <clipPath
       id="clipPath922-6">
      <circle
         cx="24"
         cy="24"
         r="20"
         id="circle1-2" />
    </clipPath>
    <clipPath
       id="clipPath833-7-9">
      <path
         d="M 2,31 H 14 V 21 L 24,31 34,21 V 31 H 46 V 2 H 2 Z"
         id="path3-5-3" />
    </clipPath>
    <clipPath
       id="clipPath922-62">
      <circle
         cx="24"
         cy="24"
         r="20"
         id="circle1-6" />
    </clipPath>
    <clipPath
       id="clipPath922-62-2">
      <circle
         cx="24"
         cy="24"
         r="20"
         id="circle1-6-3" />
    </clipPath>
    <linearGradient
       inkscape:collect="always"
       xlink:href="#linearGradient1"
       id="linearGradient4"
       gradientUnits="userSpaceOnUse"
       gradientTransform="matrix(1,0,0,0.99643425,0.028884,-1.0499277)"
       x1="32"
       y1="59.317074"
       x2="31.999996"
       y2="4.5709362" />
  </defs>
  <g
     id="g1"
     transform="matrix(1.0176391,0,0,1.0176391,-0.09382589,0.42747023)">
    <ellipse
       style="opacity:0.2;stroke-width:1.36799"
       cx="32"
       cy="32.297043"
       id="circle4"
       rx="27.499994"
       ry="27.219667" />
    <ellipse
       style="fill:url(#linearGradient4);stroke-width:1.36799"
       cx="32.028885"
       cy="30.835966"
       id="circle4-6-5"
       rx="27.499994"
       ry="27.219667" />
    <path
       style="opacity:0.236659;fill:#ffffff;stroke-width:1.36799"
       d="M 32.028885,3.5047095 A 27.499997,27.219667 0 0 0 4.528888,30.724374 27.499997,27.219667 0 0 0 4.558448,31.51647 27.499997,27.219667 0 0 1 32.028882,4.8656892 27.499997,27.219667 0 0 1 59.5,31.293269 27.499997,27.219667 0 0 0 59.5289,30.724374 27.499997,27.219667 0 0 0 32.0289,3.5047095 Z"
       id="path8-0-9" />
    <path
       style="fill:#f2f2f2"
       d="m 3,30 h 8 V 13 L 24,26 37,13 v 17 h 8 v 5 H 32 V 25 l -8,8 -8,-8 V 35 H 3 Z"
       clip-path="url(#clipPath922-62-2)"
       id="path7-8-2"
       transform="matrix(1.375,0,0,1.4969021,-1,-4.6323827)" />
  </g>
</svg>
