<?xml version="1.0" encoding="UTF-8" standalone="no"?>
<svg
   width="62"
   height="62"
   version="1"
   id="svg5"
   sodipodi:docname="mouse-touchpad-clicking.svg"
   inkscape:version="1.4.4 (unknown)"
   xmlns:inkscape="http://www.inkscape.org/namespaces/inkscape"
   xmlns:sodipodi="http://sodipodi.sourceforge.net/DTD/sodipodi-0.dtd"
   xmlns="http://www.w3.org/2000/svg"
   xmlns:svg="http://www.w3.org/2000/svg">
  <defs
     id="defs5" />
  <sodipodi:namedview
     id="namedview5"
     pagecolor="#ffffff"
     bordercolor="#000000"
     borderopacity="0.25"
     inkscape:showpageshadow="2"
     inkscape:pageopacity="0.0"
     inkscape:pagecheckerboard="0"
     inkscape:deskcolor="#d1d1d1"
     inkscape:zoom="7.90625"
     inkscape:cx="29.849802"
     inkscape:cy="23.968379"
     inkscape:window-width="1920"
     inkscape:window-height="996"
     inkscape:window-x="0"
     inkscape:window-y="0"
     inkscape:window-maximized="1"
     inkscape:current-layer="svg5" />
  <g
     id="g5"
     transform="matrix(1.4499999,0,0,1.5135127,-3.7999977,-6.0810457)">
    <path
       style="opacity:0.2"
       d="m 20.6416,7.0000365 c -1.664961,0 -3.62046,1.6363734 -3.62046,3.2727455 -0.02486,1.444516 -0.02118,4.459437 0.0065,8.907364 0.04424,7.110215 0.03112,9.343071 -0.05528,9.648847 -2.46498,-0.255464 -5.010892,-2.570094 -6.679015,-3.867996 -1.0902745,-0.850456 -2.1702805,-1.628716 -2.3998845,-1.729059 -0.957139,-0.418316 -2.313774,-0.153524 -3.092536,0.604053 -0.538487,0.523832 -0.739538,0.988082 -0.786956,1.828134 -0.03623,0.641954 -0.01149,0.795617 0.18861,1.220888 0.126088,0.267915 0.35233,0.627552 0.504041,0.799009 0.151695,0.171458 2.228756,3.220141 4.614413,6.287004 4.4181495,5.67971 7.9195975,8.718169 8.6767895,8.930133 0.462937,0.129814 22.440351,0.132661 22.91978,0.0032 0.217672,-0.05878 0.529548,-0.253949 0.754436,-0.473014 0.315142,-0.306977 0.434844,-0.532821 0.679642,-1.27522 0.700877,-2.125551 1.401243,-5.359779 1.599381,-7.156011 0.08616,-2.087105 0.04046,-4.035717 0,-5.727306 -0.03721,-1.555988 0.0027,-2.979612 2e-6,-4.90904 0,-1.636373 -1.664961,-3.363788 -3.329923,-3.363788 -1.664961,0 -2.62114,1.727415 -2.62114,3.363788 6.92e-4,-0.479593 -0.1029,-1.329027 -0.109,-1.636373 0,-1.636373 -0.891,-3.727415 -3.23,-3.727415 -2.339,0 -3.142641,1.571801 -3.581332,2.880464 -0.0539,0.0262 -0.107007,0.05017 -0.159336,0.0799 -9.53e-4,-0.208764 0.0033,-0.706046 0,-0.869324 0,-1.636373 -1.953916,-3.09104 -3.618876,-3.09104 -1.412863,0 -2.84583,0.999183 -3.241292,2.35595 -0.03338,0.04855 -0.04361,0.16354 -0.06016,0.169391 -0.05077,0.01799 0,-2.040072 0,-5.11686 0,-2.107569 0.01548,-3.358991 0,-4.135756 0,-1.6363725 -1.693435,-3.272746 -3.358396,-3.272746 z"
       id="path1" />
    <path
       style="fill:#ffb380"
       d="m 20.6416,6.0000568 c -1.664961,0 -3.62046,1.6363734 -3.62046,3.2727459 -0.02486,1.4445153 -0.02118,4.4594363 0.0065,8.9073633 0.04424,7.110215 0.03112,9.343071 -0.05528,9.648847 -2.46498,-0.255464 -5.010892,-2.570094 -6.679015,-3.867996 -1.0902745,-0.850456 -2.1702805,-1.628716 -2.3998845,-1.729059 -0.957139,-0.418316 -2.313774,-0.153524 -3.092536,0.604053 -0.538487,0.523832 -0.739538,0.988082 -0.786956,1.828134 -0.03623,0.641954 -0.01149,0.795617 0.18861,1.220888 0.126088,0.267915 0.35233,0.627552 0.504041,0.799009 0.151695,0.171458 2.228756,3.220141 4.614413,6.287004 4.4181495,5.67971 7.9195975,8.718169 8.6767895,8.930133 0.462937,0.129814 22.440351,0.132661 22.91978,0.0032 0.217672,-0.05878 0.529548,-0.253949 0.754436,-0.473014 0.315142,-0.306977 0.434844,-0.532821 0.679642,-1.27522 0.700877,-2.125551 1.401243,-5.359779 1.599381,-7.156011 0.08616,-2.087105 0.04046,-4.035717 0,-5.727306 -0.03721,-1.555988 0.0027,-2.979612 2e-6,-4.90904 C 43.951063,20.727415 42.286102,19 40.62114,19 38.956179,19 38,20.727415 38,22.363788 38.000692,21.884195 37.8971,21.034761 37.891,20.727415 37.891,19.091042 37,17 34.661,17 c -2.339,0 -3.142641,1.571801 -3.581332,2.880464 -0.0539,0.0262 -0.107007,0.05017 -0.159336,0.0799 -9.53e-4,-0.208764 0.0033,-0.706046 0,-0.869324 0,-1.636373 -1.953916,-3.09104 -3.618876,-3.09104 -1.412863,0 -2.84583,0.999183 -3.241292,2.35595 -0.03338,0.04855 -0.04361,0.16354 -0.06016,0.169391 -0.05077,0.01799 0,-2.040072 0,-5.11686 0,-2.107569 0.01548,-3.358991 0,-4.1357558 0,-1.6363724 -1.693435,-3.2727459 -3.358396,-3.2727459 z"
       id="path2" />
    <circle
       style="opacity:0.7;fill:#ffe6d5"
       cx="20.5"
       cy="9.5"
       r="2.5"
       id="circle2" />
    <path
       style="opacity:0.7;fill:#ffe6d5"
       d="M 4.5,25 A 2.5,2.5 0 0 0 4,25.056641 c 2.441e-4,0.33943 0.051837,0.506594 0.203125,0.828125 0.126088,0.267915 0.3521953,0.627371 0.5039062,0.798828 0.08244,0.09318 0.7585154,1.068508 1.71875,2.402344 A 2.5,2.5 0 0 0 7,27.5 2.5,2.5 0 0 0 4.5,25 Z"
       id="path3" />
    <path
       style="opacity:0.2;fill:#ffffff"
       d="m 20.640625,6 c -1.664961,0 -3.619141,1.637065 -3.619141,3.2734375 -0.01367,0.7943065 -0.01846,2.1616795 -0.01563,3.8828125 4.24e-4,-1.204632 0.0049,-2.256827 0.01563,-2.882812 C 17.021484,8.6370654 18.975664,7 20.640625,7 h 0.002 C 22.307539,7 24,8.637065 24,10.273438 23.999221,10.024651 24.003744,9.4612994 24,9.2734375 24,7.6370651 22.307539,6 20.642578,6 Z m 6.660156,10 c -1.412863,0 -2.844772,0.998702 -3.240234,2.355469 -0.03338,0.04855 -0.044,0.164071 -0.06055,0.169922 -0.01159,0.0041 -0.01671,-0.128476 -0.01953,-0.328125 -0.0057,0.841082 -0.005,1.336815 0.01953,1.328125 0.01655,-0.0059 0.02717,-0.121372 0.06055,-0.169922 C 24.456009,17.998702 25.887918,17 27.300781,17 c 1.66496,0 3.619141,1.455424 3.619141,3.091797 0.0033,0.163278 -9.53e-4,0.660377 0,0.869141 0.05233,-0.02973 0.106256,-0.05388 0.160156,-0.08008 C 31.518769,19.572196 32.321156,18 34.660156,18 c 2.339,0 3.230469,2.09019 3.230469,3.726562 0.0061,0.307346 0.110067,1.157126 0.109375,1.636719 C 38,21.726908 38.956133,20 40.621094,20 c 1.639133,0 3.27571,1.673772 3.326172,3.287109 0.0015,-0.314908 0.0044,-0.580481 0.0039,-0.923828 C 43.951172,20.726908 42.286056,19 40.621094,19 38.956133,19 38,20.726908 38,22.363281 38.000692,21.883688 37.896725,21.033909 37.890625,20.726562 37.890625,19.09019 36.999156,17 34.660156,17 c -2.339,0 -3.141387,1.572196 -3.580078,2.880859 -0.0539,0.0262 -0.107827,0.05035 -0.160156,0.08008 -9.53e-4,-0.208764 0.0033,-0.705863 0,-0.869141 C 30.919922,17.455424 28.965741,16 27.300781,16 Z M 6.6992188,22.039062 c -0.6995741,0.04203 -1.4117113,0.32339 -1.8984376,0.796876 -0.5384869,0.523831 -0.7396913,0.988072 -0.7871093,1.828124 -0.02109,0.37369 -0.01545,0.580777 0.027344,0.773438 0.071984,-0.692321 0.2751273,-1.130114 0.7597656,-1.601562 0.7787621,-0.757578 2.1346579,-1.021832 3.0917969,-0.603516 0.229604,0.100343 1.3101162,0.878059 2.4003906,1.728516 1.668123,1.297901 4.214707,3.611723 6.679687,3.867187 0.04813,-0.170334 0.06882,-1.236971 0.07422,-3.113281 -0.0096,1.335847 -0.03311,1.96779 -0.07422,2.113281 -2.46498,-0.255464 -5.011564,-2.569286 -6.679687,-3.867187 C 9.2026943,23.110481 8.1221821,22.332765 7.8925781,22.232422 7.533651,22.075553 7.1189632,22.013843 6.6992188,22.039062 Z m 37.2402342,3.390626 c -0.0074,0.979907 -0.01068,1.907114 0.01172,2.84375 0.01883,0.787376 0.03569,1.640548 0.04297,2.527343 0.0055,-1.257138 -0.01717,-2.448535 -0.04297,-3.527343 -0.01482,-0.619771 -0.0138,-1.225652 -0.01172,-1.84375 z"
       id="path4" />
    <path
       style="opacity:0.1"
       d="M 22.945312,9.9863281 A 2.5,2.5 0 0 1 20.5,12 2.5,2.5 0 0 1 18.056641,10 2.5,2.5 0 0 0 18,10.5 2.5,2.5 0 0 0 20.5,13 2.5,2.5 0 0 0 23,10.5 2.5,2.5 0 0 0 22.945312,9.9863281 Z"
       id="path5" />
  </g>
</svg>
