<?xml version="1.0" encoding="UTF-8" standalone="no"?>
<svg
   width="62"
   height="62"
   version="1.1"
   id="svg5"
   sodipodi:docname="org.jeffvli.feishin.svg"
   inkscape:version="1.4.4 (unknown)"
   xmlns:inkscape="http://www.inkscape.org/namespaces/inkscape"
   xmlns:sodipodi="http://sodipodi.sourceforge.net/DTD/sodipodi-0.dtd"
   xmlns:xlink="http://www.w3.org/1999/xlink"
   xmlns="http://www.w3.org/2000/svg"
   xmlns:svg="http://www.w3.org/2000/svg">
  <defs
     id="defs5">
    <linearGradient
       id="linearGradient8"
       inkscape:collect="always">
      <stop
         style="stop-color:#0c345a;stop-opacity:0.99607843;"
         offset="0"
         id="stop8" />
      <stop
         style="stop-color:#28364a;stop-opacity:1;"
         offset="1"
         id="stop10" />
    </linearGradient>
    <linearGradient
       id="linearGradient4217">
      <stop
         style="stop-color:#000000;stop-opacity:1;"
         offset="0"
         id="stop2" />
      <stop
         style="stop-color:#000000;stop-opacity:0;"
         offset="1"
         id="stop4" />
    </linearGradient>
    <linearGradient
       id="linearGradient4161">
      <stop
         style="stop-color:#334545;stop-opacity:1;"
         offset="0"
         id="stop7" />
      <stop
         style="stop-color:#4d6868;stop-opacity:1"
         offset="1"
         id="stop9" />
    </linearGradient>
    <linearGradient
       id="a-1-2"
       y1="510.79999"
       y2="527.14001"
       gradientUnits="userSpaceOnUse"
       x2="0">
      <stop
         stop-color="#7cbaf8"
         id="stop2-2-7" />
      <stop
         offset="1"
         stop-color="#f4fcff"
         id="stop4-70-0" />
    </linearGradient>
    <linearGradient
       id="c"
       y1="503.79999"
       x1="400.57001"
       y2="519.79999"
       x2="416.57001"
       gradientUnits="userSpaceOnUse">
      <stop
         stop-color="#292c2f"
         id="stop12" />
      <stop
         offset="1"
         stop-opacity="0"
         id="stop14" />
    </linearGradient>
    <linearGradient
       id="b"
       y1="542.79999"
       x1="408.57001"
       y2="521.79999"
       x2="387.57001"
       gradientUnits="userSpaceOnUse"
       gradientTransform="translate(-384.57,-499.8)">
      <stop
         stop-color="#197cf1"
         id="stop7-8" />
      <stop
         offset="1"
         stop-color="#20bcfa"
         id="stop9-7" />
    </linearGradient>
    <linearGradient
       xlink:href="#linearGradient1389"
       id="linearGradient4503-5-6"
       y1="37"
       y2="4"
       x2="0"
       gradientUnits="userSpaceOnUse"
       gradientTransform="matrix(1.0218446,0,0,0.99999999,21.748946,8.2587777)" />
    <linearGradient
       id="linearGradient1389">
      <stop
         style="stop-color:#ffaaaa;stop-opacity:1"
         id="stop1385"
         offset="0" />
      <stop
         offset="1"
         style="stop-color:#ff5555;stop-opacity:1"
         id="stop1387" />
    </linearGradient>
    <linearGradient
       id="paint543_linear_890_11"
       x1="978.5"
       y1="298"
       x2="978.5"
       y2="304"
       gradientUnits="userSpaceOnUse"
       gradientTransform="matrix(0.75000004,0,0,0.75000004,-717.38333,-173.49123)">
      <stop
         offset="0.189495"
         stop-color="#EFF2F6"
         id="stop1829" />
      <stop
         offset="0.850463"
         stop-color="#B7C6CD"
         id="stop1830" />
    </linearGradient>
    <linearGradient
       inkscape:collect="always"
       xlink:href="#linearGradient8"
       id="linearGradient10"
       x1="35.608036"
       y1="11.017543"
       x2="35.735077"
       y2="59.017544"
       gradientUnits="userSpaceOnUse"
       gradientTransform="translate(-0.5,-1)" />
    <linearGradient
       id="linearGradient4144">
      <stop
         style="stop-color:#c83771;stop-opacity:1"
         offset="0"
         id="stop1141" />
      <stop
         style="stop-color:#de87aa;stop-opacity:1"
         offset="1"
         id="stop1143" />
    </linearGradient>
    <linearGradient
       id="c-0"
       gradientUnits="userSpaceOnUse"
       x1="10"
       x2="24"
       y1="10"
       y2="24"
       gradientTransform="translate(59.728813,26.237288)">
      <stop
         offset="0"
         stop-color="#292c2f"
         id="stop12-2" />
      <stop
         offset="1"
         stop-opacity="0"
         id="stop14-3" />
    </linearGradient>
    <linearGradient
       id="d"
       gradientUnits="userSpaceOnUse"
       x1="24"
       x2="24"
       y1="25"
       y2="7"
       gradientTransform="translate(59.728813,26.237288)">
      <stop
         offset="0"
         stop-color="#bb9d71"
         id="stop2-7" />
      <stop
         offset="1"
         stop-color="#f9f2e7"
         id="stop4-5" />
    </linearGradient>
    <linearGradient
       xlink:href="#linearGradient2-2"
       id="linearGradient10-3"
       gradientUnits="userSpaceOnUse"
       x1="85"
       y1="352.42188"
       x2="427"
       y2="159.57812"
       gradientTransform="matrix(0.13450305,0,0,0.13482426,-3.432756,-3.0237505)" />
    <linearGradient
       id="linearGradient2-2">
      <stop
         style="stop-color:#00e5c2;stop-opacity:0.99607843;"
         offset="0"
         id="stop1-6" />
      <stop
         style="stop-color:#1e74c9;stop-opacity:0.99607843;"
         offset="1"
         id="stop2-75" />
    </linearGradient>
  </defs>
  <sodipodi:namedview
     id="namedview5"
     pagecolor="#ffffff"
     bordercolor="#000000"
     borderopacity="0.25"
     inkscape:showpageshadow="2"
     inkscape:pageopacity="0.0"
     inkscape:pagecheckerboard="0"
     inkscape:deskcolor="#d1d1d1"
     inkscape:zoom="8.2643105"
     inkscape:cx="49.247908"
     inkscape:cy="41.564266"
     inkscape:window-width="1920"
     inkscape:window-height="996"
     inkscape:window-x="0"
     inkscape:window-y="0"
     inkscape:window-maximized="1"
     inkscape:current-layer="svg5" />
  <rect
     style="opacity:1;stroke-width:0.9823;fill:#364963;fill-opacity:1"
     width="55"
     height="55.017544"
     x="3.5"
     y="3.9824562"
     rx="8.25"
     ry="8.2526312"
     id="rect1" />
  <rect
     style="fill:url(#linearGradient10);stroke-width:0.9823"
     width="55"
     height="55.017544"
     x="3.5"
     y="3"
     rx="8.25"
     ry="8.2526312"
     id="rect2" />
  <path
     style="opacity:0.1;fill:#ffffff;stroke-width:0.9823"
     d="M 11.748466,3 C 7.1779652,3 3.5,6.6791384 3.5,11.251097 v 0.982456 c 0,-4.5719585 3.6779652,-8.2510969 8.248466,-8.2510969 h 38.503068 c 4.5705,0 8.248466,3.6791384 8.248466,8.2510969 V 11.251097 C 58.5,6.6791384 54.822034,3 50.251534,3 Z"
     id="path4" />
  <path
     id="inner"
     style="display:inline;fill:url(#linearGradient10-3);stroke:none;stroke-width:10.1128;stroke-linecap:round;stroke-linejoin:round;stroke-dasharray:none;stroke-opacity:1;paint-order:markers fill stroke"
     d="m 26.885575,34.043145 -4.371626,4.417355 4.213776,4.235384 2.3409,-2.311286 c 0,0 0.685534,-0.727298 1.931407,-0.727298 1.245799,0 1.931331,0.727298 1.931331,0.727298 l 2.340967,2.311286 4.213698,-4.235384 -4.371633,-4.417355 c -1.116321,1.04503 -2.586908,1.6263 -4.114362,1.62631 -1.527465,-10e-6 -2.998119,-0.58128 -4.114458,-1.62631 z m 4.114457,-15.551917 c -0.833297,0 -1.587627,0.338742 -2.133668,0.886097 L 8.8742838,39.38372 c -0.540155,0.541405 -0.8742836,1.289411 -0.8742836,2.115599 0,1.652326 1.3363865,2.991909 2.9847918,2.991909 0.824217,0 1.57043,-0.334923 2.110548,-0.876371 L 25.256044,31.459918 c -0.188193,-0.592673 -0.283978,-1.210868 -0.283978,-1.832801 0,-3.337121 2.698783,-6.042315 6.027966,-6.042315 3.329127,0 6.027955,2.705194 6.027955,6.042315 5e-6,0.621932 -0.09583,1.240128 -0.284011,1.832801 l 12.160676,12.154939 c 0.540174,0.541448 1.286291,0.876371 2.110547,0.876371 C 52.663671,44.491228 54,43.151645 54,41.499319 54,40.673131 53.66585,39.925125 53.125736,39.38372 L 33.133671,19.377325 c -0.546026,-0.547357 -1.300439,-0.886093 -2.133639,-0.886097 z m 0,8.613481 c -1.389889,0 -2.516451,1.129246 -2.516451,2.522408 0,1.393183 1.126562,2.522695 2.516451,2.522695 1.38982,0 2.516452,-1.129512 2.516452,-2.522695 0,-1.393162 -1.126632,-2.522408 -2.516452,-2.522408 z" />
</svg>
