<?xml version="1.0" encoding="UTF-8" standalone="no"?>
<svg
   width="62"
   height="62"
   version="1"
   id="svg6"
   sodipodi:docname="org.kde.windowappmenu.svg"
   inkscape:version="1.4.4 (unknown)"
   xmlns:inkscape="http://www.inkscape.org/namespaces/inkscape"
   xmlns:sodipodi="http://sodipodi.sourceforge.net/DTD/sodipodi-0.dtd"
   xmlns="http://www.w3.org/2000/svg"
   xmlns:svg="http://www.w3.org/2000/svg">
  <defs
     id="defs6" />
  <sodipodi:namedview
     id="namedview6"
     pagecolor="#ffffff"
     bordercolor="#000000"
     borderopacity="0.25"
     inkscape:showpageshadow="2"
     inkscape:pageopacity="0.0"
     inkscape:pagecheckerboard="0"
     inkscape:deskcolor="#d1d1d1"
     inkscape:zoom="7.90625"
     inkscape:cx="27.699605"
     inkscape:cy="32.56917"
     inkscape:window-width="1920"
     inkscape:window-height="996"
     inkscape:window-x="0"
     inkscape:window-y="0"
     inkscape:window-maximized="1"
     inkscape:current-layer="svg6" />
  <g
     id="g6"
     transform="matrix(1.0066964,0,0,1,-0.52678465,-1)">
    <path
       style="opacity:0.2;stroke-width:1.36585"
       d="M 4,14.926829 V 56.878811 C 4,58.609543 5.391628,60 7.121189,60 H 58.634146 V 14.926829 Z"
       id="path1" />
    <path
       style="fill:#e5e5e5;stroke-width:1.36585;fill-opacity:1"
       d="m 4,16.156098 v 39.35686 c 0,1.730732 1.391628,3.121188 3.121189,3.121188 H 58.634146 V 16.156098 Z"
       id="path2" />
    <path
       style="fill:#535d6c;stroke-width:1.36585"
       d="M 7.121189,4 C 5.391628,4 4,5.3904573 4,7.121189 v 9.171494 H 58.634146 V 4 Z"
       id="path3" />
    <path
       style="opacity:0.2;stroke-width:1.36585"
       d="m 6.7317073,8.097561 v 1.3658536 1.3658534 1.365854 1.365854 1.365853 H 8.097561 v -1.365853 -1.365854 h 2.731707 V 10.829268 H 8.097561 V 9.4634146 h 2.731707 V 8.097561 Z m 5.4634147,0 v 1.3658536 5.4634144 h 1.365854 V 9.4634146 8.097561 Z m 2.731707,0 v 5.463415 1.365853 H 19.02439 V 13.560976 H 16.292683 V 8.097561 Z m 5.463415,0 v 1.3658536 1.3658534 1.365854 1.365854 1.365853 h 4.097561 v -1.365853 h -2.731707 v -1.365854 h 2.731707 V 10.829268 H 21.756098 V 9.4634146 h 2.731707 V 8.097561 Z m 9.560976,0 v 1.3658536 1.3658534 1.365854 1.365854 1.365853 h 4.09756 V 13.560976 H 31.317073 V 12.195122 H 34.04878 V 10.829268 H 31.317073 V 9.4634146 H 34.04878 V 8.097561 Z m 5.463414,0 v 1.3658536 5.4634144 h 0.682927 0.682927 0.899009 l 1.832698,-1.283155 V 11.512195 9.3807164 L 37.679497,8.097561 h -0.899009 -0.682927 z m 5.463415,0 v 1.3658536 5.4634144 h 1.365853 V 9.4634146 8.097561 Z m 2.731707,0 v 1.3658536 h 1.365854 v 5.4634144 h 1.365853 V 9.4634146 h 1.365854 V 8.097561 Z m -6.829268,1.3658536 h 0.466844 l 0.899009,0.6295734 v 1.419207 1.419208 l -0.899009,0.629573 h -0.466844 z"
       id="path4" />
    <path
       style="fill:#ffffff;stroke-width:1.36585"
       d="m 6.7317073,6.7317073 v 1.3658537 1.3658536 1.3658534 1.365854 1.365854 H 8.097561 v -1.365854 -1.365854 h 2.731707 V 9.4634146 H 8.097561 V 8.097561 h 2.731707 V 6.7317073 Z m 5.4634147,0 v 1.3658537 5.463415 h 1.365854 V 8.097561 6.7317073 Z m 2.731707,0 v 5.4634147 1.365854 H 19.02439 V 12.195122 H 16.292683 V 6.7317073 Z m 5.463415,0 v 1.3658537 1.3658536 1.3658534 1.365854 1.365854 h 4.097561 v -1.365854 h -2.731707 v -1.365854 h 2.731707 V 9.4634146 H 21.756098 V 8.097561 h 2.731707 V 6.7317073 Z m 9.560976,0 v 1.3658537 1.3658536 1.3658534 1.365854 1.365854 h 4.09756 V 12.195122 H 31.317073 V 10.829268 H 34.04878 V 9.4634146 H 31.317073 V 8.097561 H 34.04878 V 6.7317073 Z m 5.463414,0 v 1.3658537 5.463415 h 0.682927 0.682927 0.899009 L 39.512195,12.27782 V 10.146341 8.0148628 L 37.679497,6.7317073 h -0.899009 -0.682927 z m 5.463415,0 v 1.3658537 5.463415 h 1.365853 V 8.097561 6.7317073 Z m 2.731707,0 V 8.097561 h 1.365854 v 5.463415 h 1.365853 V 8.097561 h 1.365854 V 6.7317073 Z M 36.780488,8.097561 h 0.466844 l 0.899009,0.6295731 v 1.4192069 1.419208 l -0.899009,0.629573 h -0.466844 z"
       id="path5" />
    <path
       style="opacity:0.1;fill:#ffffff;stroke-width:1.36585"
       d="M 7.121189,4 C 5.391628,4 4,5.3904573 4,7.121189 V 8.4870426 C 4,6.7563107 5.391628,5.3658537 7.121189,5.3658537 H 58.634146 V 4 Z"
       id="path6" />
  </g>
</svg>
