<?xml version="1.0" encoding="UTF-8" standalone="no"?>
<svg
   width="62"
   height="62"
   version="1"
   id="svg6"
   sodipodi:docname="org.kde.windowtitle.svg"
   inkscape:version="1.4.4 (unknown)"
   xmlns:inkscape="http://www.inkscape.org/namespaces/inkscape"
   xmlns:sodipodi="http://sodipodi.sourceforge.net/DTD/sodipodi-0.dtd"
   xmlns="http://www.w3.org/2000/svg"
   xmlns:svg="http://www.w3.org/2000/svg">
  <defs
     id="defs6" />
  <sodipodi:namedview
     id="namedview6"
     pagecolor="#ffffff"
     bordercolor="#000000"
     borderopacity="0.25"
     inkscape:showpageshadow="2"
     inkscape:pageopacity="0.0"
     inkscape:pagecheckerboard="0"
     inkscape:deskcolor="#d1d1d1"
     inkscape:zoom="7.90625"
     inkscape:cx="51.604743"
     inkscape:cy="29.913043"
     inkscape:window-width="1920"
     inkscape:window-height="996"
     inkscape:window-x="0"
     inkscape:window-y="0"
     inkscape:window-maximized="1"
     inkscape:current-layer="svg6" />
  <g
     id="g6"
     transform="matrix(1.375,0,0,1.3658537,-2,-2.4634157)">
    <path
       style="opacity:0.2"
       d="M 4,12 V 42.714844 C 4,43.981987 5.0188705,45 6.2851562,45 H 44 V 12 Z"
       id="path1" />
    <path
       style="fill:#e4e4e4"
       d="M 4,12.9 V 41.714844 C 4,42.981987 5.0188705,44 6.2851562,44 H 44 V 12.9 Z"
       id="path2" />
    <path
       style="fill:#535d6c"
       d="M 6.2851562,4 C 5.0188705,4 4,5.0180134 4,6.2851562 V 13 H 44 V 4 Z"
       id="path3" />
    <path
       style="opacity:0.2"
       d="m 6,7 v 1 h 1 v 4 H 8 V 8 H 9 V 7 Z m 4,0 v 1 h 1 V 7 Z m 2,0 v 1 h 1 v 4 h 1 V 8 h 1 V 7 Z m 4,0 v 4 1 h 3 V 11 H 17 V 7 Z m 4,0 v 1 1 1 1 1 h 3 v -1 h -2 v -1 h 2 V 9 H 21 V 8 h 2 V 7 Z M 10,9 v 3 h 1 V 9 Z"
       id="path4" />
    <path
       style="fill:#ffffff"
       d="m 6,6 v 1 h 1 v 4 H 8 V 7 H 9 V 6 Z m 4,0 v 1 h 1 V 6 Z m 2,0 v 1 h 1 v 4 h 1 V 7 h 1 V 6 Z m 4,0 v 4 1 h 3 V 10 H 17 V 6 Z m 4,0 v 1 1 1 1 1 h 3 V 10 H 21 V 9 h 2 V 8 H 21 V 7 h 2 V 6 Z M 10,7 v 4 h 1 V 7 Z"
       id="path5" />
    <path
       style="opacity:0.1;fill:#ffffff"
       d="M 6.2851562,4 C 5.0188705,4 4,5.0180134 4,6.2851562 v 1 C 4,6.0180132 5.0188705,5 6.2851562,5 H 44 V 4 Z"
       id="path6" />
  </g>
</svg>
