<?xml version="1.0" encoding="UTF-8" standalone="no"?>
<svg
   width="62"
   height="62"
   version="1.1"
   id="svg10"
   sodipodi:docname="shelly-update.svg"
   inkscape:version="1.4.4 (unknown)"
   xmlns:inkscape="http://www.inkscape.org/namespaces/inkscape"
   xmlns:sodipodi="http://sodipodi.sourceforge.net/DTD/sodipodi-0.dtd"
   xmlns:xlink="http://www.w3.org/1999/xlink"
   xmlns="http://www.w3.org/2000/svg"
   xmlns:svg="http://www.w3.org/2000/svg">
  <defs
     id="defs10">
    <linearGradient
       id="linearGradient11"
       inkscape:collect="always">
      <stop
         style="stop-color:#373e48;stop-opacity:1"
         offset="0"
         id="stop11" />
      <stop
         style="stop-color:#535d6c;stop-opacity:1"
         offset="1"
         id="stop12" />
    </linearGradient>
    <linearGradient
       inkscape:collect="always"
       xlink:href="#linearGradient11"
       id="linearGradient12"
       x1="30.978724"
       y1="60"
       x2="32"
       y2="4"
       gradientUnits="userSpaceOnUse"
       gradientTransform="matrix(1,0,0,0.98245614,-1,-0.43859645)" />
    <linearGradient
       id="paint154_linear_890_11"
       x1="778"
       y1="812.29199"
       x2="788"
       y2="812.29199"
       gradientUnits="userSpaceOnUse">
      <stop
         stop-color="#EFF2F6"
         id="stop1050" />
      <stop
         offset="0.600785"
         stop-color="#B7C6CD"
         id="stop1051" />
    </linearGradient>
    <linearGradient
       id="paint155_linear_890_11"
       x1="783"
       y1="813"
       x2="783"
       y2="817"
       gradientUnits="userSpaceOnUse">
      <stop
         stop-color="#EFF2F6"
         id="stop1052" />
      <stop
         offset="0.734138"
         stop-color="#B7C6CD"
         id="stop1053" />
    </linearGradient>
    <radialGradient
       id="paint156_radial_890_11"
       cx="0"
       cy="0"
       r="1"
       gradientUnits="userSpaceOnUse"
       gradientTransform="matrix(6.9999948,6.9999948,-6.9999948,6.9999948,45.000143,44.000006)">
      <stop
         offset="0.600678"
         stop-color="#B7C6CD"
         id="stop1054" />
      <stop
         offset="0.876735"
         stop-color="#EFF2F6"
         id="stop1055" />
    </radialGradient>
    <linearGradient
       id="paint157_linear_890_11"
       x1="803"
       y1="805"
       x2="763"
       y2="765"
       gradientUnits="userSpaceOnUse"
       gradientTransform="matrix(0.29166667,0,0,0.29166667,-183.37486,-184.95833)">
      <stop
         offset="0.314714"
         stop-color="#2E2E41"
         id="stop1056" />
      <stop
         offset="0.711139"
         stop-color="#566C80"
         id="stop1057" />
    </linearGradient>
    <linearGradient
       id="paint158_linear_890_11"
       x1="792"
       y1="794"
       x2="774"
       y2="776"
       gradientUnits="userSpaceOnUse"
       xlink:href="#paint160_linear_890_11"
       gradientTransform="matrix(0.29166667,0,0,0.29166667,-183.37486,-184.95833)">
      <stop
         offset="0.304478"
         stop-color="#2E2E41"
         id="stop1058"
         style="stop-color:#ffcc00;stop-opacity:1" />
      <stop
         offset="1"
         stop-color="#566C80"
         id="stop1059"
         style="stop-color:#ffb380;stop-opacity:1" />
    </linearGradient>
    <linearGradient
       id="paint160_linear_890_11"
       x1="784"
       y1="798"
       x2="782"
       y2="796"
       gradientUnits="userSpaceOnUse">
      <stop
         stop-color="#FF7E07"
         id="stop1062" />
      <stop
         offset="1"
         stop-color="#FFE607"
         id="stop1063" />
    </linearGradient>
    <linearGradient
       id="paint159_linear_890_11"
       x1="788"
       y1="790"
       x2="778"
       y2="780"
       gradientUnits="userSpaceOnUse"
       gradientTransform="matrix(0.29166667,0,0,0.29166667,-183.37486,-184.95833)">
      <stop
         offset="0.39139399"
         stop-color="#5200FF"
         id="stop1060"
         style="stop-color:#854cff;stop-opacity:1;" />
      <stop
         offset="1"
         stop-color="#0085FF"
         id="stop1061"
         style="stop-color:#40a4ff;stop-opacity:1;" />
    </linearGradient>
    <linearGradient
       id="paint1_linear_61_69"
       x1="73.322601"
       y1="84.096497"
       x2="73.322601"
       y2="33"
       gradientUnits="userSpaceOnUse"
       gradientTransform="matrix(0.6136318,0,0,0.61546681,-17.32088,41.689561)">
      <stop
         stop-color="#5570FF"
         id="stop5" />
      <stop
         offset="1"
         stop-color="#4DD3FF"
         id="stop6" />
    </linearGradient>
    <linearGradient
       id="paint2_linear_61_69"
       x1="63.741901"
       y1="94.741997"
       x2="63.741901"
       y2="37.258099"
       gradientUnits="userSpaceOnUse"
       gradientTransform="matrix(0.6136318,0,0,0.61546681,-17.32088,41.689561)">
      <stop
         stop-color="#5570FF"
         id="stop7" />
      <stop
         offset="1"
         stop-color="#4DD3FF"
         id="stop8" />
    </linearGradient>
    <filter
       id="filter17"
       x="-0.010432258"
       y="-0.0089833331"
       width="1.0208645"
       height="1.0179667"
       color-interpolation-filters="sRGB">
      <feGaussianBlur
         stdDeviation="0.67375"
         id="feGaussianBlur11" />
    </filter>
    <linearGradient
       id="linearGradient5"
       x1="160"
       x2="270"
       y1="100"
       y2="270"
       gradientUnits="userSpaceOnUse">
      <stop
         stop-color="#4e94c8"
         offset="0"
         id="stop1" />
      <stop
         stop-color="#406ba3"
         offset="1"
         id="stop2" />
    </linearGradient>
    <filter
       id="filter16"
       x="-0.0097999998"
       y="-0.0089833331"
       width="1.0196"
       height="1.0179667"
       color-interpolation-filters="sRGB">
      <feGaussianBlur
         stdDeviation="0.67375"
         id="feGaussianBlur10" />
    </filter>
    <linearGradient
       id="linearGradient7"
       x1="65"
       x2="160"
       y1="280"
       y2="100"
       gradientUnits="userSpaceOnUse">
      <stop
         stop-color="#e53036"
         offset="0"
         id="stop3" />
      <stop
         stop-color="#cf2c31"
         offset="1"
         id="stop4" />
    </linearGradient>
    <filter
       id="filter15"
       x="-0.01010625"
       y="-0.0089833331"
       width="1.0202125"
       height="1.0179667"
       color-interpolation-filters="sRGB">
      <feGaussianBlur
         stdDeviation="0.67375"
         id="feGaussianBlur9" />
    </filter>
    <linearGradient
       id="linearGradient9"
       x1="170"
       x2="270"
       y1="280"
       y2="100"
       gradientUnits="userSpaceOnUse">
      <stop
         stop-color="#fdc752"
         offset="0"
         id="stop5-3" />
      <stop
         stop-color="#f68420"
         stop-opacity=".94902"
         offset="1"
         id="stop6-6" />
    </linearGradient>
    <filter
       id="filter14"
       x="-0.0097999998"
       y="-0.0089833331"
       width="1.0196"
       height="1.0179667"
       color-interpolation-filters="sRGB">
      <feGaussianBlur
         stdDeviation="0.67375"
         id="feGaussianBlur8" />
    </filter>
    <linearGradient
       id="linearGradient11-7"
       x1="275"
       x2="380"
       y1="280"
       y2="100"
       gradientUnits="userSpaceOnUse">
      <stop
         stop-color="#6db330"
         offset="0"
         id="stop7-5" />
      <stop
         stop-color="#5a8e3c"
         offset="1"
         id="stop8-3" />
    </linearGradient>
    <linearGradient
       id="linearGradient1-3"
       inkscape:collect="always">
      <stop
         style="stop-color:#00ccff;stop-opacity:1"
         offset="0"
         id="stop1-6" />
      <stop
         style="stop-color:#8d5fd3;stop-opacity:1"
         offset="0.53571129"
         id="stop3-7" />
      <stop
         style="stop-color:#ffcc00;stop-opacity:1"
         offset="1"
         id="stop2-3" />
    </linearGradient>
    <linearGradient
       id="linearGradient11-9"
       inkscape:collect="always"
       gradientTransform="matrix(6.8502706,0,0,1.3165526,16.237326,-37.083321)"
       x1="-0.40683758"
       y1="57.971416"
       x2="4.7022746"
       y2="57.971415"
       gradientUnits="userSpaceOnUse">
      <stop
         style="stop-color:#f6d32d;stop-opacity:1"
         offset="0"
         id="stop9-3" />
      <stop
         style="stop-color:#8d5fd3;stop-opacity:1"
         offset="0.50819981"
         id="stop10-6" />
      <stop
         style="stop-color:#ffcc00;stop-opacity:1"
         offset="1"
         id="stop11-0" />
    </linearGradient>
    <linearGradient
       inkscape:collect="always"
       xlink:href="#linearGradient1-3"
       id="linearGradient2"
       gradientUnits="userSpaceOnUse"
       x1="4.9298162"
       y1="29.073065"
       x2="4.8829832"
       y2="16.414036"
       gradientTransform="matrix(3.014101,0,0,2.9921831,16.237326,-37.083321)" />
    <linearGradient
       inkscape:collect="always"
       xlink:href="#linearGradient1-3"
       id="linearGradient3"
       gradientUnits="userSpaceOnUse"
       x1="4.9298162"
       y1="29.073065"
       x2="4.8829832"
       y2="16.414036"
       gradientTransform="matrix(3.014101,0,0,2.9921831,16.237326,-37.083321)" />
    <linearGradient
       inkscape:collect="always"
       xlink:href="#linearGradient1-3"
       id="linearGradient6"
       gradientUnits="userSpaceOnUse"
       x1="4.9298162"
       y1="29.073065"
       x2="4.8829832"
       y2="16.414036"
       gradientTransform="matrix(3.014101,0,0,2.9921831,16.237326,-37.083321)" />
  </defs>
  <sodipodi:namedview
     id="namedview10"
     pagecolor="#ffffff"
     bordercolor="#000000"
     borderopacity="0.25"
     inkscape:showpageshadow="2"
     inkscape:pageopacity="0.0"
     inkscape:pagecheckerboard="0"
     inkscape:deskcolor="#d1d1d1"
     inkscape:zoom="8.3085047"
     inkscape:cx="24.673513"
     inkscape:cy="44.352144"
     inkscape:window-width="1920"
     inkscape:window-height="996"
     inkscape:window-x="0"
     inkscape:window-y="0"
     inkscape:window-maximized="1"
     inkscape:current-layer="svg10"
     showgrid="false">
    <inkscape:grid
       id="grid1"
       units="px"
       originx="0"
       originy="0"
       spacingx="1"
       spacingy="1"
       empcolor="#0099e5"
       empopacity="0.30196078"
       color="#0099e5"
       opacity="0.14901961"
       empspacing="5"
       enabled="true"
       visible="false" />
  </sodipodi:namedview>
  <g
     id="g1">
    <rect
       style="opacity:0.2;stroke-width:0.991189"
       width="56"
       height="55.017544"
       x="3"
       y="3.9824562"
       rx="16.799999"
       ry="16.505262"
       id="rect1" />
    <rect
       style="fill:url(#linearGradient12);stroke-width:0.991189"
       width="56"
       height="55.017544"
       x="3"
       y="3.4912281"
       rx="16.799999"
       ry="16.505262"
       id="rect2" />
    <path
       style="opacity:0.1;fill:#ffffff;stroke-width:0.991189"
       d="M 19.800781,3 C 10.493582,3 3,10.362116 3,19.50603 v 0.982457 C 3,11.344572 10.493582,3.9824562 19.800781,3.9824562 H 42.199219 C 51.506418,3.9824562 59,11.344572 59,20.488487 V 19.50603 C 59,10.362116 51.506418,3 42.199219,3 Z"
       id="path9" />
    <path
       d="m 24.138569,37.821064 c -0.05049,-0.391836 -0.09904,-0.831444 -0.09904,-1.223288 0,-0.244671 0,-0.489315 0.05049,-0.684259 -6.163358,-4.25665 -7.804369,-9.541644 -7.855075,-9.786303 -0.09904,-0.244641 0.09904,-0.53903 0.347599,-0.586785 0.248563,-0.09748 0.547634,0.09749 0.596153,0.342138 0,0.0497 1.541883,4.943063 7.109387,8.954955 0.248561,-0.881156 0.646661,-1.712603 1.192305,-2.446573 -2.435118,-2.545956 -5.219814,-9.591557 -5.318742,-9.935544 -0.09904,-0.244671 0.05049,-0.53903 0.29905,-0.636501 0.248561,-0.09748 0.547634,0.0497 0.646661,0.294341 0.05049,0.09749 2.784696,7.095068 5.021958,9.491732 0.69518,-0.684258 1.491376,-1.223285 2.386599,-1.565415 -1.440868,-2.152202 -2.734188,-10.372992 -2.883723,-11.351621 -0.0505,-0.244671 0.149523,-0.53903 0.398087,-0.53903 0.248561,-0.0497 0.547633,0.147186 0.547633,0.391835 0.547633,3.817048 1.838966,10.17824 2.833216,11.106963 0,0 0.05049,0.0497 0.05049,0.09749 0.547633,-0.147185 1.093278,-0.19497 1.68943,-0.19497 0.547633,0 1.093278,0.0497 1.640911,0.19497 l 0.05049,-0.0497 c 0.994248,-0.881159 2.287571,-7.289816 2.833215,-11.106962 0.05049,-0.244671 0.299047,-0.439621 0.547633,-0.391836 0.248561,0.0497 0.446638,0.294341 0.398088,0.539033 -0.149523,0.978629 -1.392347,9.149701 -2.883724,11.304157 0.895222,0.342138 1.739939,0.881159 2.386599,1.565417 2.237062,-2.396864 4.971251,-9.394363 5.021958,-9.444272 0.09904,-0.244671 0.398088,-0.391833 0.64666,-0.294341 0.248561,0.09749 0.398088,0.391835 0.299053,0.636503 -0.09904,0.294341 -2.883725,7.339726 -5.318742,9.836212 0.547632,0.733971 0.99425,1.565415 1.192305,2.446574 5.567304,-4.011991 7.05868,-8.905045 7.05868,-8.954955 0.09904,-0.244671 0.347599,-0.391835 0.596152,-0.342138 0.248561,0.09748 0.398089,0.342138 0.3476,0.586785 -0.05049,0.244671 -1.64091,5.479839 -7.804368,9.736393 0.05049,0.244641 0.05049,0.489315 0.05049,0.733974 0,0.391832 -0.05049,0.831444 -0.09904,1.223285 2.784697,-1.370474 10.637483,-5.529749 11.035679,-9.444269 0.09904,-1.223289 -0.547629,-2.299391 -1.988496,-3.327736 -0.14956,-0.09748 -0.248543,-0.294341 -0.198087,-0.489315 0,0 0.248603,-1.810073 -0.695175,-2.788702 -0.497125,-0.539033 -1.293321,-0.733974 -2.33609,-0.636504 -0.248561,0.0497 -0.497127,-0.147185 -0.547635,-0.43962 0,-0.0497 -0.497125,-3.083077 -2.435117,-4.208892 -0.943742,-0.539029 -2.138036,-0.586788 -3.530384,-0.0497 -0.248557,0.09749 -0.547634,-0.0497 -0.646661,-0.244641 0,-0.0497 -1.988501,-4.551023 -5.71694,-4.109464 h -0.05049 -0.05049 c -3.536201,-0.437708 -5.474343,4.063615 -5.524553,4.113279 -0.09904,0.244671 -0.398088,0.342139 -0.64666,0.244671 -1.392348,-0.53903 -2.536134,-0.489314 -3.530384,0.0497 -1.988501,1.125818 -2.435118,4.208895 -2.435118,4.208895 -0.05049,0.244671 -0.299051,0.439617 -0.547633,0.439617 -1.044759,-0.09749 -1.838966,0.09749 -2.336091,0.636501 -0.943742,0.978632 -0.69518,2.788705 -0.69518,2.788705 0.05049,0.194971 -0.05049,0.342138 -0.198075,0.489315 -1.491375,1.028347 -2.138036,2.104447 -1.988501,3.327735 0.398088,3.912612 8.352201,8.121653 11.086389,9.491735 z"
       id="path1"
       style="fill:url(#linearGradient2);stroke-width:0.493206" />
    <path
       d="m 31.19725,42.664304 c 2.635162,0 4.872224,-1.662888 5.767646,-3.964236 0,-0.09748 0.05049,-0.24467 0.09904,-0.342138 0.198075,-0.586788 0.299047,-1.173573 0.299047,-1.810073 0,-1.467947 -0.547633,-2.838421 -1.392348,-3.864808 -0.05049,0 -0.09904,-0.0497 -0.09904,-0.09749 -0.05049,-0.0497 -0.05049,-0.0497 -0.05049,-0.09748 -1.143785,-1.223288 -2.784697,-2.006974 -4.573154,-2.006974 -3.380849,0 -6.163358,2.740947 -6.163358,6.066529 -0.0019,3.327732 2.73225,6.116438 6.113148,6.116438 z"
       id="path2"
       style="fill:url(#linearGradient3);stroke-width:0.493206" />
    <path
       d="m 13.947504,44.524191 c 0,0 0.198075,1.028345 0.99425,1.517659 0.596152,0.342139 1.392348,0.391836 2.336091,0.147186 0.198074,-0.0497 0.446637,0.0497 0.547633,0.244671 0.09904,0.147185 1.889473,3.033361 5.618011,1.517659 0.149524,-0.0497 0.347601,-0.0497 0.446637,0.0497 0.05049,0.0497 3.926494,2.496289 6.909046,1.907547 h 0.09904 0.09904 0.09904 c 2.982751,0.586785 6.860824,-1.859792 6.909046,-1.907547 0.149523,-0.09748 0.299053,-0.09748 0.446638,-0.0497 3.677929,1.517662 5.519082,-1.370471 5.61801,-1.517659 0.09904,-0.194971 0.3476,-0.294341 0.547633,-0.244671 0.994252,0.294341 1.790447,0.244671 2.33609,-0.147186 0.796196,-0.489314 0.994249,-1.517659 0.994249,-1.517659 0.05055,-0.147185 0.14959,-0.294341 0.299029,-0.342138 1.491374,-0.684258 1.541885,-1.125818 1.491374,-1.223288 -0.05055,-0.194971 -0.149589,-0.342141 -0.398081,-0.53903 -0.14956,0.53903 -0.646663,1.273003 -1.889477,1.517659 -0.299029,0.0497 -0.596153,0.147186 -0.796196,0.342138 -0.745687,0.53903 -1.889471,1.273004 -2.982749,1.320759 -0.149529,0 -0.29905,0 -0.398088,0.0497 l -0.547634,0.147186 c -0.99425,0.24467 -2.087527,0.489314 -2.68368,0.489314 -0.248561,0.0497 -2.138036,0.244671 -3.033259,0.09749 -0.29905,-0.0497 -0.547632,-0.0497 -0.745687,0 -1.242814,0.24467 -3.281822,0.636503 -4.474127,0.636503 H 31.39131 30.546594 c -1.093277,0.09748 -3.530383,-0.342138 -4.872224,-0.636503 -0.198075,-0.0497 -0.446637,-0.0497 -0.745687,0 -0.943743,0.147185 -2.833216,-0.09749 -3.033259,-0.09749 -0.446638,0 -1.988501,-0.342138 -3.231314,-0.6365 -0.09904,-0.0497 -0.248563,-0.0497 -0.3476,-0.0497 -1.093278,-0.09748 -2.237063,-0.783686 -2.982751,-1.320759 -0.198074,-0.147185 -0.497125,-0.24467 -0.796196,-0.342138 -1.242813,-0.244671 -1.739938,-0.978632 -1.889473,-1.517659 -0.24856,0.194971 -0.398088,0.391832 -0.398088,0.539027 0,0.09748 0.05049,0.586788 1.491376,1.223291 0.05631,0.04778 0.155351,0.194971 0.205839,0.342138 z"
       id="path3"
       style="fill:url(#linearGradient6);stroke-width:0.493206" />
    <path
       d="m 24.536767,39.239098 c -4.276072,0.586788 -8.897546,1.615133 -11.086389,2.641517 0,0.0497 0.05049,0.09749 0.05049,0.147186 0,0.0497 0.09904,0.733973 1.143786,0.928917 0.446637,0.09748 0.844715,0.244671 1.192305,0.489315 0.895223,0.684258 1.790446,1.076103 2.435118,1.125818 0.198075,0 0.347599,0.0497 0.547633,0.0497 1.838965,0.43962 2.833216,0.6365 3.033259,0.6365 h 0.497126 c 0.09904,0 0.198074,0.0497 0.24856,0.0497 0.69518,0.0497 1.640911,0.09749 2.138036,0.0497 0.398088,-0.0497 0.745688,-0.0497 1.093278,0 2.237063,0.439621 3.926493,0.684259 4.573154,0.586788 h 0.05049 l 0.992311,-0.0018 h 0.05049 c 0.64666,0.09749 2.386597,-0.147185 4.573153,-0.586788 0.3476,-0.0497 0.695181,-0.09748 1.093278,0 0.497125,0.0497 1.440867,0 2.138037,-0.0497 0.09904,-0.0497 0.149527,-0.0497 0.248558,-0.0497 h 0.497125 c 0.446638,0 1.64091,-0.294341 2.485627,-0.489315 l 0.547632,-0.147185 c 0.198075,-0.0497 0.3476,-0.0497 0.497125,-0.0497 0.64666,-0.0497 1.541885,-0.489315 2.485627,-1.125815 0.347598,-0.244671 0.745682,-0.439621 1.1923,-0.489315 1.093284,-0.194971 1.143788,-0.831444 1.143788,-0.928914 0,-0.0497 0,-0.09749 0.05052,-0.147186 -1.938025,-0.928908 -5.866605,-1.90754 -10.688222,-2.593753 -1.093277,2.544047 -3.629411,4.35412 -6.612262,4.35412 -2.934182,0.0039 -5.519083,-1.855973 -6.612262,-4.400017 z"
       id="path4-3"
       style="fill:url(#linearGradient11-9);stroke-width:0.493206" />
    <path
       inkscape:connector-curvature="0"
       id="rect1224"
       d="m 31.219504,40.947648 c 0.137653,0.0012 0.268026,-0.06112 0.35272,-0.168457 l 3.090988,-3.937436 c 0.226266,-0.287325 0.01924,-0.706854 -0.348427,-0.706672 h -1.766271 v -2.624941 c 0,-0.727143 -0.590834,-1.312486 -1.324705,-1.312486 -0.733905,0 -1.324705,0.585381 -1.324705,1.312486 v 2.624997 h -1.766279 c -0.367873,-1.92e-4 -0.574691,0.419257 -0.348427,0.706665 l 3.090984,3.937493 c 0.08277,0.105148 0.20953,0.167134 0.344129,0.168456 z"
       style="opacity:0.99;vector-effect:none;fill:#f2f2f2;fill-opacity:1;stroke:none;stroke-width:0.791154;stroke-linecap:round;stroke-linejoin:round;stroke-miterlimit:4;stroke-dasharray:none;stroke-dashoffset:0;stroke-opacity:1" />
  </g>
</svg>
