<?xml version="1.0" encoding="UTF-8" standalone="no"?>
<svg
   width="64"
   height="64"
   viewBox="0 0 16.933 16.933"
   version="1.1"
   id="svg4"
   sodipodi:docname="tsMuxerGUI.svg"
   inkscape:version="1.4.4 (unknown)"
   xmlns:inkscape="http://www.inkscape.org/namespaces/inkscape"
   xmlns:sodipodi="http://sodipodi.sourceforge.net/DTD/sodipodi-0.dtd"
   xmlns="http://www.w3.org/2000/svg"
   xmlns:svg="http://www.w3.org/2000/svg">
  <defs
     id="defs4" />
  <sodipodi:namedview
     id="namedview4"
     pagecolor="#ffffff"
     bordercolor="#000000"
     borderopacity="0.25"
     inkscape:showpageshadow="2"
     inkscape:pageopacity="0.0"
     inkscape:pagecheckerboard="0"
     inkscape:deskcolor="#d1d1d1"
     inkscape:zoom="5.9140625"
     inkscape:cx="47.429326"
     inkscape:cy="26.800528"
     inkscape:window-width="1920"
     inkscape:window-height="994"
     inkscape:window-x="0"
     inkscape:window-y="0"
     inkscape:window-maximized="1"
     inkscape:current-layer="svg4" />
  <circle
     cx="8.466"
     cy="8.46"
     r="7.144"
     fill="#c1c9d7"
     style="paint-order:stroke markers fill;fill:#50607c;fill-opacity:1"
     id="circle1" />
  <circle
     cx="8.466"
     cy="8.466"
     r="4.661"
     opacity=".15"
     style="paint-order:stroke markers fill;fill:#1e242e;fill-opacity:1;opacity:1"
     id="circle2" />
  <g
     fill="#fff"
     style="paint-order:stroke markers fill"
     id="g3">
    <path
       d="M8.466 4.518a3.942 3.942 0 1 0 0 7.885 3.942 3.942 0 0 0 0-7.885"
       id="path2" />
    <path
       d="M7.75 2.906h1.433v2.509H7.75zm0 8.603h1.433v2.509H7.75zm6.272-3.764v1.433h-2.509V7.745zm-8.603 0v1.433H2.91V7.745zm7.482 4.14-1.012 1.012-1.775-1.774 1.013-1.012zM6.818 5.802 5.805 6.814 4.031 5.04l1.013-1.012zm-1.774 7.095-1.013-1.013 1.774-1.775 1.014 1.015zm6.083-6.083-1.013-1.013 1.775-1.775 1.013 1.015z"
       id="path3" />
  </g>
  <circle
     cx="8.466"
     cy="8.466"
     r="2.381"
     fill="#7a9ed3"
     style="paint-order:markers fill stroke"
     id="circle3" />
  <path
     fill="#fff"
     d="M7.937 7.673V9.26l1.323-.793z"
     style="paint-order:markers fill stroke"
     id="path4" />
</svg>
