<?xml version="1.0" encoding="UTF-8" standalone="no"?>
<svg
   width="62"
   height="62"
   version="1.1"
   id="svg5"
   sodipodi:docname="shelly-smart-control.svg"
   inkscape:version="1.4.4 (unknown)"
   xmlns:inkscape="http://www.inkscape.org/namespaces/inkscape"
   xmlns:sodipodi="http://sodipodi.sourceforge.net/DTD/sodipodi-0.dtd"
   xmlns:xlink="http://www.w3.org/1999/xlink"
   xmlns="http://www.w3.org/2000/svg"
   xmlns:svg="http://www.w3.org/2000/svg">
  <defs
     id="defs5">
    <linearGradient
       id="linearGradient8"
       inkscape:collect="always">
      <stop
         style="stop-color:#394d69;stop-opacity:1;"
         offset="0"
         id="stop8" />
      <stop
         style="stop-color:#28364a;stop-opacity:1;"
         offset="1"
         id="stop10" />
    </linearGradient>
    <linearGradient
       id="linearGradient4217">
      <stop
         style="stop-color:#000000;stop-opacity:1;"
         offset="0"
         id="stop2" />
      <stop
         style="stop-color:#000000;stop-opacity:0;"
         offset="1"
         id="stop4" />
    </linearGradient>
    <linearGradient
       id="linearGradient4161">
      <stop
         style="stop-color:#334545;stop-opacity:1;"
         offset="0"
         id="stop7" />
      <stop
         style="stop-color:#4d6868;stop-opacity:1"
         offset="1"
         id="stop9" />
    </linearGradient>
    <linearGradient
       id="a-1-2"
       y1="510.79999"
       y2="527.14001"
       gradientUnits="userSpaceOnUse"
       x2="0">
      <stop
         stop-color="#7cbaf8"
         id="stop2-2-7" />
      <stop
         offset="1"
         stop-color="#f4fcff"
         id="stop4-70-0" />
    </linearGradient>
    <linearGradient
       id="c"
       y1="503.79999"
       x1="400.57001"
       y2="519.79999"
       x2="416.57001"
       gradientUnits="userSpaceOnUse">
      <stop
         stop-color="#292c2f"
         id="stop12" />
      <stop
         offset="1"
         stop-opacity="0"
         id="stop14" />
    </linearGradient>
    <linearGradient
       id="b"
       y1="542.79999"
       x1="408.57001"
       y2="521.79999"
       x2="387.57001"
       gradientUnits="userSpaceOnUse"
       gradientTransform="translate(-384.57,-499.8)">
      <stop
         stop-color="#197cf1"
         id="stop7-8" />
      <stop
         offset="1"
         stop-color="#20bcfa"
         id="stop9-7" />
    </linearGradient>
    <linearGradient
       xlink:href="#linearGradient1389"
       id="linearGradient4503-5-6"
       y1="37"
       y2="4"
       x2="0"
       gradientUnits="userSpaceOnUse"
       gradientTransform="matrix(1.0218446,0,0,0.99999999,21.748946,8.2587777)" />
    <linearGradient
       id="linearGradient1389">
      <stop
         style="stop-color:#ffaaaa;stop-opacity:1"
         id="stop1385"
         offset="0" />
      <stop
         offset="1"
         style="stop-color:#ff5555;stop-opacity:1"
         id="stop1387" />
    </linearGradient>
    <linearGradient
       id="paint543_linear_890_11"
       x1="978.5"
       y1="298"
       x2="978.5"
       y2="304"
       gradientUnits="userSpaceOnUse"
       gradientTransform="matrix(0.75000004,0,0,0.75000004,-717.38333,-173.49123)">
      <stop
         offset="0.189495"
         stop-color="#EFF2F6"
         id="stop1829" />
      <stop
         offset="0.850463"
         stop-color="#B7C6CD"
         id="stop1830" />
    </linearGradient>
    <linearGradient
       inkscape:collect="always"
       xlink:href="#linearGradient8"
       id="linearGradient10"
       x1="35.608036"
       y1="11.017543"
       x2="35.735077"
       y2="59.017544"
       gradientUnits="userSpaceOnUse"
       gradientTransform="translate(-0.5,-1)" />
    <linearGradient
       id="linearGradient4144">
      <stop
         style="stop-color:#c83771;stop-opacity:1"
         offset="0"
         id="stop1141" />
      <stop
         style="stop-color:#de87aa;stop-opacity:1"
         offset="1"
         id="stop1143" />
    </linearGradient>
    <linearGradient
       id="c-0"
       gradientUnits="userSpaceOnUse"
       x1="10"
       x2="24"
       y1="10"
       y2="24"
       gradientTransform="translate(59.728813,26.237288)">
      <stop
         offset="0"
         stop-color="#292c2f"
         id="stop12-2" />
      <stop
         offset="1"
         stop-opacity="0"
         id="stop14-3" />
    </linearGradient>
    <linearGradient
       id="d"
       gradientUnits="userSpaceOnUse"
       x1="24"
       x2="24"
       y1="25"
       y2="7"
       gradientTransform="translate(59.728813,26.237288)">
      <stop
         offset="0"
         stop-color="#bb9d71"
         id="stop2-7" />
      <stop
         offset="1"
         stop-color="#f9f2e7"
         id="stop4-5" />
    </linearGradient>
    <linearGradient
       inkscape:collect="always"
       xlink:href="#linearGradient1"
       id="linearGradient2"
       x1="7.2752557"
       y1="14.444846"
       x2="7.1492682"
       y2="1.6109709"
       gradientUnits="userSpaceOnUse"
       gradientTransform="matrix(2.8000111,0,0,2.7692292,8.5999156,8.8461385)" />
    <linearGradient
       id="linearGradient1"
       inkscape:collect="always">
      <stop
         style="stop-color:#00ccff;stop-opacity:1"
         offset="0"
         id="stop1" />
      <stop
         style="stop-color:#8d5fd3;stop-opacity:1"
         offset="0.53571129"
         id="stop3" />
      <stop
         style="stop-color:#ffcc00;stop-opacity:1"
         offset="1"
         id="stop2-3" />
    </linearGradient>
  </defs>
  <sodipodi:namedview
     id="namedview5"
     pagecolor="#ffffff"
     bordercolor="#000000"
     borderopacity="0.25"
     inkscape:showpageshadow="2"
     inkscape:pageopacity="0.0"
     inkscape:pagecheckerboard="0"
     inkscape:deskcolor="#d1d1d1"
     inkscape:zoom="8.2643105"
     inkscape:cx="28.556526"
     inkscape:cy="31.884088"
     inkscape:window-width="1920"
     inkscape:window-height="996"
     inkscape:window-x="0"
     inkscape:window-y="0"
     inkscape:window-maximized="1"
     inkscape:current-layer="svg5" />
  <rect
     style="opacity:1;stroke-width:0.9823;fill:#364963;fill-opacity:1"
     width="55"
     height="55.017544"
     x="3.5"
     y="3.9824562"
     rx="8.25"
     ry="8.2526312"
     id="rect1" />
  <rect
     style="fill:url(#linearGradient10);stroke-width:0.9823"
     width="55"
     height="55.017544"
     x="3.5"
     y="3"
     rx="8.25"
     ry="8.2526312"
     id="rect2" />
  <path
     style="opacity:0.1;fill:#ffffff;stroke-width:0.9823"
     d="M 11.748466,3 C 7.1779652,3 3.5,6.6791384 3.5,11.251097 v 0.982456 c 0,-4.5719585 3.6779652,-8.2510969 8.248466,-8.2510969 h 38.503068 c 4.5705,0 8.248466,3.6791384 8.248466,8.2510969 V 11.251097 C 58.5,6.6791384 54.822034,3 50.251534,3 Z"
     id="path4" />
  <path
     id="use10"
     d="m 30.871729,13.000088 c -0.545393,-0.0031 -1.303668,0.07043 -2.253794,0.307173 -0.950117,0.236877 -2.074703,0.55256 -2.914769,1.647591 -1.279636,1.667986 -1.484307,3.697508 -1.421753,5.53267 0.06255,1.83515 0.425101,3.572512 0.621794,4.735056 0.431158,2.54838 2.194986,11.157821 2.194986,11.157821 a 1.6284986,1.5952925 0 0 0 1.917054,1.251401 1.6284986,1.5952925 0 0 0 1.277442,-1.876225 c 0,0 -1.786989,-8.757489 -2.175387,-11.053108 -0.213165,-1.259487 -0.530358,-2.841085 -0.580824,-4.32141 -0.0505,-1.480327 0.198481,-2.762967 0.771457,-3.509851 -0.02273,0.02867 0.485958,-0.315241 1.111751,-0.471237 0.625786,-0.155872 1.386261,-0.209597 1.434224,-0.209411 a 1.6284986,1.5952925 0 0 0 0.146016,-0.0054 1.6284986,1.5952925 0 0 0 0.146133,0.0054 c 0.04796,-2.51e-4 0.808435,0.05346 1.434226,0.209411 0.625789,0.155872 1.13549,0.499878 1.11353,0.471237 0.572979,0.746884 0.820135,2.029524 0.769665,3.509848 -0.05055,1.480328 -0.365937,3.061926 -0.579029,4.321413 -0.388401,2.295619 -2.175399,11.053108 -2.175399,11.053108 a 1.6284986,1.5952925 0 0 0 1.277453,1.876225 1.6284986,1.5952925 0 0 0 1.915266,-1.251401 c 0,0 1.763821,-8.609441 2.19499,-11.157821 0.196657,-1.162544 0.559242,-2.899906 0.621796,-4.735056 0.06255,-1.835162 -0.142079,-3.864684 -1.421754,-5.53267 -0.840075,-1.095031 -1.962874,-1.410771 -2.913,-1.647591 -0.950119,-0.236876 -1.708394,-0.309931 -2.25378,-0.307173 a 1.6284986,1.5952925 0 0 0 -0.130114,0.0054 1.6284986,1.5952925 0 0 0 -0.128152,-0.0054 z m -10.11799,5.323235 c -0.801111,-0.04096 -1.623717,0.08795 -2.474703,0.342074 -1.134649,0.338755 -2.345382,0.913973 -3.089387,2.145013 -0.958544,1.586 -0.990761,3.406518 -0.646728,5.049198 0.344028,1.642677 1.069544,3.171473 1.94378,4.403446 0.60128,0.847342 1.587468,2.27217 2.485396,3.5622 0.897925,1.290016 1.618639,2.342097 2.034637,2.857079 a 1.6284986,1.5952925 0 0 0 2.287638,0.261855 1.6284986,1.5952925 0 0 0 0.267168,-2.240984 c -0.110754,-0.137138 -1.005232,-1.391209 -1.899235,-2.675597 -0.893999,-1.284377 -1.876033,-2.703566 -2.501434,-3.584888 -0.620915,-0.874995 -1.189416,-2.088726 -1.427092,-3.223596 -0.2376,-1.134889 -0.139401,-2.125478 0.258338,-2.78379 0.09169,-0.151746 0.575506,-0.521735 1.236459,-0.719062 0.660959,-0.19737 1.471332,-0.207663 1.660495,-0.169271 a 1.6284986,1.5952925 0 0 0 1.924197,-1.239167 1.6284986,1.5952925 0 0 0 -1.264969,-1.884948 c -0.262297,-0.05312 -0.527571,-0.08582 -0.794613,-0.09955 z m 20.49252,0 c -0.266976,0.01307 -0.532303,0.04644 -0.794616,0.09956 a 1.6284986,1.5952925 0 0 0 -1.264964,1.884943 1.6284986,1.5952925 0 0 0 1.924171,1.239191 c 0.189206,-0.03836 0.999546,-0.02811 1.660506,0.169252 0.660961,0.197367 1.14477,0.567356 1.236465,0.719067 0.397868,0.658312 0.497793,1.648916 0.260124,2.78379 -0.237623,1.134867 -0.806175,2.3486 -1.427096,3.223595 -0.625392,0.881332 -1.607437,2.300515 -2.501429,3.584885 -0.894006,1.284393 -1.788445,2.538432 -1.899243,2.675593 a 1.6284986,1.5952925 0 0 0 0.265476,2.240991 1.6284986,1.5952925 0 0 0 2.287632,-0.26185 c 0.415985,-0.514984 1.138483,-1.567071 2.036409,-2.857086 0.897928,-1.290028 1.884112,-2.714854 2.485399,-3.562198 0.874235,-1.231975 1.599758,-2.760767 1.943784,-4.403447 0.344013,-1.642676 0.3118,-3.463193 -0.646755,-5.049193 -0.744,-1.231039 -1.956512,-1.806258 -3.091153,-2.145011 -0.850993,-0.254159 -1.673611,-0.383109 -2.474717,-0.342073 z m -28.677421,8.794668 a 1.6284986,1.5952925 0 0 0 -0.211923,0.0067 1.6284986,1.5952925 0 0 0 -1.097498,0.581193 c -1.4189161,1.712647 -1.6130228,4.024021 -0.712654,6.003891 1.283114,2.821529 3.375119,4.723964 5.840241,6.204613 2.465109,1.480644 5.316827,2.621621 8.510928,4.13117 a 1.6284986,1.5952925 0 0 0 2.175392,-0.743452 1.6284986,1.5952925 0 0 0 -0.758987,-2.129295 c -3.291377,-1.555425 -6.091503,-2.696572 -8.224106,-3.977499 -2.13261,-1.280934 -3.584867,-2.619965 -4.568149,-4.782174 -0.31153,-0.68503 -0.09734,-2.256477 0.267216,-2.696523 a 1.6284986,1.5952925 0 0 0 -0.238837,-2.242757 1.6284986,1.5952925 0 0 0 -0.981685,-0.35605 z m 36.8641,0 a 1.6284986,1.5952925 0 0 0 -0.981688,0.35605 1.6284986,1.5952925 0 0 0 -0.238847,2.242724 c 0.36457,0.440053 0.576986,2.011502 0.265482,2.696525 -0.983292,2.162216 -2.433765,3.50124 -4.566368,4.78218 -2.132602,1.280925 -4.932738,2.422069 -8.224082,3.977573 a 1.6284986,1.5952925 0 0 0 -0.758981,2.12929 1.6284986,1.5952925 0 0 0 2.1736,0.743511 c 3.194105,-1.509552 6.045831,-2.650522 8.510941,-4.131174 2.465112,-1.480648 4.557116,-3.383084 5.840242,-6.20461 0.900373,-1.979876 0.706258,-4.291243 -0.712661,-6.003906 a 1.6284986,1.5952925 0 0 0 -1.09571,-0.581186 1.6284986,1.5952925 0 0 0 -0.211993,-0.0067 z M 18.211336,42.127732 a 1.6284986,1.5952925 0 0 0 -1.528663,1.237442 c -0.252186,1.076724 -0.321978,2.450747 0.906856,3.58837 1.912884,1.770869 4.675264,1.940532 7.025047,2.026317 2.349777,0.08576 4.356125,-0.132651 4.356125,-0.132651 a 1.6284986,1.5952925 0 0 0 1.441357,-1.761023 1.6284986,1.5952925 0 0 0 -1.797684,-1.41196 c 0,0 -1.801566,0.192755 -3.87686,0.116862 -2.033047,-0.07426 -4.257249,-0.618631 -4.871028,-1.12573 0.0034,0.0018 0.009,0.0031 0.01227,0.0034 h 0.0017 0.0018 0.0017 0.0018 l 0.0018,-0.0017 h 0.0018 l 0.0017,-0.0018 h 0.0018 v -0.0018 l 0.0017,-0.0018 0.0018,-0.0018 c 0.03402,-0.05829 -0.08269,-0.396063 -0.03929,-0.581192 a 1.6284986,1.5952925 0 0 0 -1.223904,-1.911084 1.6284986,1.5952925 0 0 0 -0.422245,-0.04015 z m 25.579127,0 a 1.6284986,1.5952925 0 0 0 -0.424034,0.04015 1.6284986,1.5952925 0 0 0 -1.222219,1.911124 c 0.04333,0.184997 -0.07278,0.524592 -0.03929,0.582942 l 0.0017,0.0017 v 0.0018 h 0.0018 l 0.0018,0.0017 h 0.0018 l 0.0018,0.0018 h 0.0018 0.0018 0.0018 0.0018 0.0018 c 0.0032,-6.06e-4 0.0067,-0.0018 0.01012,-0.0034 -0.613712,0.507108 -2.836207,1.051517 -4.86924,1.125731 -2.075298,0.07573 -3.876873,-0.11691 -3.876873,-0.11691 a 1.6284986,1.5952925 0 0 0 -1.797676,1.411963 1.6284986,1.5952925 0 0 0 1.441352,1.761033 c 0,0 2.004566,0.218516 4.354344,0.132647 2.349784,-0.08582 5.113949,-0.255441 7.026822,-2.026322 1.228848,-1.137613 1.159109,-2.511647 0.906856,-3.588378 a 1.6284986,1.5952925 0 0 0 -1.52853,-1.237442 z"
     style="fill:url(#linearGradient2);stroke-width:2.78448" />
</svg>
