<svg width="281" height="257" viewBox="0 0 281 257" fill="none" xmlns="http://www.w3.org/2000/svg">
<g filter="url(#filter0_ddiiii_42_2216)">
<path d="M3 38.8571C3 19.0797 19.0877 3 38.875 3H254.125C273.912 3 290 19.0797 290 38.8571V218.143C290 237.92 273.912 254 254.125 254H38.875C19.0877 254 3 237.92 3 218.143V38.8571ZM184.505 98.5257C181.983 94.8279 177.835 92.6429 173.406 92.6429C168.978 92.6429 164.774 94.8279 162.307 98.5257L113.54 170.016L98.6853 151.471C96.1068 148.277 92.2391 146.429 88.2031 146.429C84.1672 146.429 80.2434 148.277 77.7209 151.471L41.8459 196.292C38.5947 200.326 37.9781 205.873 40.2203 210.523C42.4625 215.173 47.1711 218.143 52.3281 218.143H106.141H124.078H240.672C245.661 218.143 250.257 215.398 252.555 210.971C254.854 206.545 254.573 201.223 251.771 197.133L184.505 98.5257ZM65.7812 92.6429C80.6357 92.6429 92.6875 80.5971 92.6875 65.75C92.6875 50.9029 80.6357 38.8571 65.7812 38.8571C50.9268 38.8571 38.875 50.9029 38.875 65.75C38.875 80.5971 50.9268 92.6429 65.7812 92.6429Z" fill="#EF7F4B"/>
<path d="M38.875 3.5H254.125C273.636 3.5 289.5 19.3563 289.5 38.8574V218.143C289.5 237.644 273.636 253.5 254.125 253.5H38.875C19.3636 253.5 3.5 237.644 3.5 218.143V38.8574L3.51172 37.9453C3.997 18.8642 19.6686 3.5 38.875 3.5ZM173.406 92.1426C168.817 92.1426 164.457 94.4061 161.895 98.2441L113.507 169.176L99.0752 151.158L99.0742 151.157L98.8203 150.851C96.1514 147.729 92.2608 145.929 88.2031 145.929C84.0189 145.929 79.9497 147.843 77.3301 151.158L41.4551 195.979C38.0829 200.165 37.4444 205.918 39.7695 210.74C42.0947 215.563 46.9782 218.643 52.3281 218.643H240.672C245.844 218.643 250.613 215.797 252.999 211.202C255.306 206.759 255.108 201.44 252.448 197.252L252.184 196.851L184.918 98.2441C182.303 94.4102 178 92.1426 173.406 92.1426ZM65.7812 38.3574C50.6509 38.3574 38.375 50.6265 38.375 65.75C38.375 80.8735 50.6509 93.1426 65.7812 93.1426C80.9116 93.1426 93.1875 80.8735 93.1875 65.75C93.1875 50.6265 80.9116 38.3574 65.7812 38.3574Z" stroke="black"/>
</g>
<defs>
<filter id="filter0_ddiiii_42_2216" x="-9" y="-9" width="311" height="275" filterUnits="userSpaceOnUse" color-interpolation-filters="sRGB">
<feFlood flood-opacity="0" result="BackgroundImageFix"/>
<feColorMatrix in="SourceAlpha" type="matrix" values="0 0 0 0 0 0 0 0 0 0 0 0 0 0 0 0 0 0 127 0" result="hardAlpha"/>
<feOffset dx="1" dy="-1"/>
<feGaussianBlur stdDeviation="1"/>
<feColorMatrix type="matrix" values="0 0 0 0 0.823529 0 0 0 0 0.439216 0 0 0 0 0.258824 0 0 0 0.5 0"/>
<feBlend mode="normal" in2="BackgroundImageFix" result="effect1_dropShadow_42_2216"/>
<feColorMatrix in="SourceAlpha" type="matrix" values="0 0 0 0 0 0 0 0 0 0 0 0 0 0 0 0 0 0 127 0" result="hardAlpha"/>
<feOffset dx="-1" dy="1"/>
<feGaussianBlur stdDeviation="1"/>
<feColorMatrix type="matrix" values="0 0 0 0 1 0 0 0 0 0.556863 0 0 0 0 0.329412 0 0 0 0.3 0"/>
<feBlend mode="normal" in2="effect1_dropShadow_42_2216" result="effect2_dropShadow_42_2216"/>
<feBlend mode="normal" in="SourceGraphic" in2="effect2_dropShadow_42_2216" result="shape"/>
<feColorMatrix in="SourceAlpha" type="matrix" values="0 0 0 0 0 0 0 0 0 0 0 0 0 0 0 0 0 0 127 0" result="hardAlpha"/>
<feOffset dx="-12" dy="12"/>
<feGaussianBlur stdDeviation="15"/>
<feComposite in2="hardAlpha" operator="arithmetic" k2="-1" k3="1"/>
<feColorMatrix type="matrix" values="0 0 0 0 0.823529 0 0 0 0 0.439216 0 0 0 0 0.258824 0 0 0 0.9 0"/>
<feBlend mode="normal" in2="shape" result="effect3_innerShadow_42_2216"/>
<feColorMatrix in="SourceAlpha" type="matrix" values="0 0 0 0 0 0 0 0 0 0 0 0 0 0 0 0 0 0 127 0" result="hardAlpha"/>
<feOffset dx="12" dy="-12"/>
<feGaussianBlur stdDeviation="12"/>
<feComposite in2="hardAlpha" operator="arithmetic" k2="-1" k3="1"/>
<feColorMatrix type="matrix" values="0 0 0 0 1 0 0 0 0 0.556863 0 0 0 0 0.329412 0 0 0 0.9 0"/>
<feBlend mode="normal" in2="effect3_innerShadow_42_2216" result="effect4_innerShadow_42_2216"/>
<feColorMatrix in="SourceAlpha" type="matrix" values="0 0 0 0 0 0 0 0 0 0 0 0 0 0 0 0 0 0 127 0" result="hardAlpha"/>
<feOffset dx="-12" dy="-12"/>
<feGaussianBlur stdDeviation="12"/>
<feComposite in2="hardAlpha" operator="arithmetic" k2="-1" k3="1"/>
<feColorMatrix type="matrix" values="0 0 0 0 0.823529 0 0 0 0 0.439216 0 0 0 0 0.258824 0 0 0 0.2 0"/>
<feBlend mode="normal" in2="effect4_innerShadow_42_2216" result="effect5_innerShadow_42_2216"/>
<feColorMatrix in="SourceAlpha" type="matrix" values="0 0 0 0 0 0 0 0 0 0 0 0 0 0 0 0 0 0 127 0" result="hardAlpha"/>
<feOffset dx="12" dy="12"/>
<feGaussianBlur stdDeviation="12"/>
<feComposite in2="hardAlpha" operator="arithmetic" k2="-1" k3="1"/>
<feColorMatrix type="matrix" values="0 0 0 0 0.823529 0 0 0 0 0.439216 0 0 0 0 0.258824 0 0 0 0.2 0"/>
<feBlend mode="normal" in2="effect5_innerShadow_42_2216" result="effect6_innerShadow_42_2216"/>
</filter>
</defs>
</svg>
