<svg width="244" height="295" viewBox="0 0 244 295" fill="none" xmlns="http://www.w3.org/2000/svg">
<g filter="url(#filter0_ddiiii_42_2325)">
<path fill-rule="evenodd" clip-rule="evenodd" d="M113.505 3.52742C80.5121 7.56099 53.7159 31.264 46.2528 63.0167C44.3242 71.2226 44.3635 70.4743 44.173 102.583L43.9982 132.101L30.9756 132.259C19.327 132.4 17.7872 132.478 16.3839 132.997C9.74741 135.453 4.67266 141.026 3.38954 147.268C2.79175 150.175 2.91852 293.964 3.52102 296.345C5.2309 303.105 10.8714 308.749 17.6266 310.46C20.4664 311.18 223.488 311.18 226.328 310.46C233.044 308.759 238.586 303.271 240.28 296.643C241.135 293.3 241.281 150.198 240.433 146.847C239.118 141.645 235.116 136.591 230.545 134.356C226.372 132.317 225.853 132.258 212.143 132.258H199.829L199.715 102.819C199.593 71.2596 199.623 71.9097 197.916 64.0303C189.665 25.9358 151.86 -1.1615 113.505 3.52742ZM125.699 34.6052C147.111 36.5016 163.828 51.148 168.81 72.3763C169.474 75.2037 169.49 75.8528 169.592 103.761L169.696 132.258H121.976H74.2547L74.3639 103.761C74.4853 72.0849 74.3541 74.1562 76.6809 67.0989C82.5637 49.2551 98.9792 36.2883 117.802 34.6168C121.816 34.2604 121.809 34.2604 125.699 34.6052ZM127.782 180.947C147.819 185.738 152.198 213.396 134.608 224.063L132.646 225.253V240.989C132.646 256.714 132.646 256.726 131.964 257.453L131.282 258.179H121.945H112.609L111.958 257.352C111.32 256.54 111.308 256.231 111.308 240.909V225.295L109.19 223.925C86.7614 209.425 101.772 174.727 127.782 180.947Z" fill="#60696B"/>
</g>
<defs>
<filter id="filter0_ddiiii_42_2325" x="-9" y="-9" width="262" height="332" filterUnits="userSpaceOnUse" color-interpolation-filters="sRGB">
<feFlood flood-opacity="0" result="BackgroundImageFix"/>
<feColorMatrix in="SourceAlpha" type="matrix" values="0 0 0 0 0 0 0 0 0 0 0 0 0 0 0 0 0 0 127 0" result="hardAlpha"/>
<feOffset dx="1" dy="-1"/>
<feGaussianBlur stdDeviation="1"/>
<feColorMatrix type="matrix" values="0 0 0 0 0.329412 0 0 0 0 0.360784 0 0 0 0 0.368627 0 0 0 0.5 0"/>
<feBlend mode="normal" in2="BackgroundImageFix" result="effect1_dropShadow_42_2325"/>
<feColorMatrix in="SourceAlpha" type="matrix" values="0 0 0 0 0 0 0 0 0 0 0 0 0 0 0 0 0 0 127 0" result="hardAlpha"/>
<feOffset dx="-1" dy="1"/>
<feGaussianBlur stdDeviation="1"/>
<feColorMatrix type="matrix" values="0 0 0 0 0.423529 0 0 0 0 0.462745 0 0 0 0 0.470588 0 0 0 0.3 0"/>
<feBlend mode="normal" in2="effect1_dropShadow_42_2325" result="effect2_dropShadow_42_2325"/>
<feBlend mode="normal" in="SourceGraphic" in2="effect2_dropShadow_42_2325" result="shape"/>
<feColorMatrix in="SourceAlpha" type="matrix" values="0 0 0 0 0 0 0 0 0 0 0 0 0 0 0 0 0 0 127 0" result="hardAlpha"/>
<feOffset dx="-12" dy="12"/>
<feGaussianBlur stdDeviation="15"/>
<feComposite in2="hardAlpha" operator="arithmetic" k2="-1" k3="1"/>
<feColorMatrix type="matrix" values="0 0 0 0 0.329412 0 0 0 0 0.360784 0 0 0 0 0.368627 0 0 0 0.9 0"/>
<feBlend mode="normal" in2="shape" result="effect3_innerShadow_42_2325"/>
<feColorMatrix in="SourceAlpha" type="matrix" values="0 0 0 0 0 0 0 0 0 0 0 0 0 0 0 0 0 0 127 0" result="hardAlpha"/>
<feOffset dx="12" dy="-12"/>
<feGaussianBlur stdDeviation="12"/>
<feComposite in2="hardAlpha" operator="arithmetic" k2="-1" k3="1"/>
<feColorMatrix type="matrix" values="0 0 0 0 0.423529 0 0 0 0 0.462745 0 0 0 0 0.470588 0 0 0 0.9 0"/>
<feBlend mode="normal" in2="effect3_innerShadow_42_2325" result="effect4_innerShadow_42_2325"/>
<feColorMatrix in="SourceAlpha" type="matrix" values="0 0 0 0 0 0 0 0 0 0 0 0 0 0 0 0 0 0 127 0" result="hardAlpha"/>
<feOffset dx="-12" dy="-12"/>
<feGaussianBlur stdDeviation="12"/>
<feComposite in2="hardAlpha" operator="arithmetic" k2="-1" k3="1"/>
<feColorMatrix type="matrix" values="0 0 0 0 0.329412 0 0 0 0 0.360784 0 0 0 0 0.368627 0 0 0 0.2 0"/>
<feBlend mode="normal" in2="effect4_innerShadow_42_2325" result="effect5_innerShadow_42_2325"/>
<feColorMatrix in="SourceAlpha" type="matrix" values="0 0 0 0 0 0 0 0 0 0 0 0 0 0 0 0 0 0 127 0" result="hardAlpha"/>
<feOffset dx="12" dy="12"/>
<feGaussianBlur stdDeviation="12"/>
<feComposite in2="hardAlpha" operator="arithmetic" k2="-1" k3="1"/>
<feColorMatrix type="matrix" values="0 0 0 0 0.329412 0 0 0 0 0.360784 0 0 0 0 0.368627 0 0 0 0.2 0"/>
<feBlend mode="normal" in2="effect5_innerShadow_42_2325" result="effect6_innerShadow_42_2325"/>
</filter>
</defs>
</svg>
