<svg width="512" height="326" viewBox="0 0 512 326" fill="none" xmlns="http://www.w3.org/2000/svg">
<g clip-path="url(#clip0_42_2197)">
<g filter="url(#filter0_ddiiii_42_2197)">
<path fill-rule="evenodd" clip-rule="evenodd" d="M426.394 65.3435C423.618 65.6581 420.628 66.7166 418.184 68.2501C416.763 69.1413 419.454 66.7029 369.679 112.202C353.517 126.976 329.503 148.925 316.316 160.977C303.129 173.03 292.265 182.883 292.174 182.874C292.083 182.865 280.05 173.765 265.434 162.651C250.818 151.536 238.527 142.213 238.12 141.932C233.85 138.983 227.82 139.071 223.526 142.146C222.173 143.116 204.512 159.33 203.716 160.334C200.107 164.887 200.093 171.61 203.684 176.302C203.988 176.7 214.846 186.731 227.812 198.592C255.744 224.144 255.744 216.358 227.812 241.904C213.781 254.737 203.97 263.821 203.578 264.342C200.104 268.949 200.163 275.717 203.714 280.169C204.526 281.185 222.185 297.395 223.525 298.352C227.681 301.322 233.484 301.518 237.683 298.83C238.163 298.522 250.105 289.494 264.219 278.766C278.334 268.038 290.413 258.863 291.061 258.377L292.239 257.493L292.959 258.163C293.355 258.531 305.364 269.513 319.646 282.567C353.246 313.278 385.552 342.81 402.617 358.414C410.082 365.24 416.539 371.09 416.967 371.414C422.117 375.316 429.507 376.351 435.409 373.997C437.971 372.976 502.1 341.914 503.313 341.107C507.773 338.141 510.942 333.131 511.732 327.797C512.079 325.459 512.094 115.098 511.748 112.814C510.355 103.621 507.883 101.36 489.571 92.5297C482.722 89.2272 468.918 82.5701 458.896 77.7363C436.281 66.8288 435.925 66.6601 434.482 66.1887C432.064 65.3986 428.861 65.0638 426.394 65.3435ZM434.22 220.249C434.22 259.084 434.182 290.858 434.136 290.858C433.968 290.858 341.361 220.376 341.361 220.248C341.361 220.176 350.313 213.309 361.254 204.988C372.195 196.668 393.037 180.814 407.569 169.758C422.102 158.702 434.043 149.652 434.106 149.648C434.168 149.644 434.22 181.414 434.22 220.249Z" fill="#438DA6"/>
</g>
</g>
<defs>
<filter id="filter0_ddiiii_42_2197" x="189" y="53.2461" width="335" height="334" filterUnits="userSpaceOnUse" color-interpolation-filters="sRGB">
<feFlood flood-opacity="0" result="BackgroundImageFix"/>
<feColorMatrix in="SourceAlpha" type="matrix" values="0 0 0 0 0 0 0 0 0 0 0 0 0 0 0 0 0 0 127 0" result="hardAlpha"/>
<feOffset dx="1" dy="-1"/>
<feGaussianBlur stdDeviation="1"/>
<feColorMatrix type="matrix" values="0 0 0 0 0.231373 0 0 0 0 0.486275 0 0 0 0 0.572549 0 0 0 0.5 0"/>
<feBlend mode="normal" in2="BackgroundImageFix" result="effect1_dropShadow_42_2197"/>
<feColorMatrix in="SourceAlpha" type="matrix" values="0 0 0 0 0 0 0 0 0 0 0 0 0 0 0 0 0 0 127 0" result="hardAlpha"/>
<feOffset dx="-1" dy="1"/>
<feGaussianBlur stdDeviation="1"/>
<feColorMatrix type="matrix" values="0 0 0 0 0.294118 0 0 0 0 0.619608 0 0 0 0 0.729412 0 0 0 0.3 0"/>
<feBlend mode="normal" in2="effect1_dropShadow_42_2197" result="effect2_dropShadow_42_2197"/>
<feBlend mode="normal" in="SourceGraphic" in2="effect2_dropShadow_42_2197" result="shape"/>
<feColorMatrix in="SourceAlpha" type="matrix" values="0 0 0 0 0 0 0 0 0 0 0 0 0 0 0 0 0 0 127 0" result="hardAlpha"/>
<feOffset dx="-12" dy="12"/>
<feGaussianBlur stdDeviation="15"/>
<feComposite in2="hardAlpha" operator="arithmetic" k2="-1" k3="1"/>
<feColorMatrix type="matrix" values="0 0 0 0 0.231373 0 0 0 0 0.486275 0 0 0 0 0.572549 0 0 0 0.9 0"/>
<feBlend mode="normal" in2="shape" result="effect3_innerShadow_42_2197"/>
<feColorMatrix in="SourceAlpha" type="matrix" values="0 0 0 0 0 0 0 0 0 0 0 0 0 0 0 0 0 0 127 0" result="hardAlpha"/>
<feOffset dx="12" dy="-12"/>
<feGaussianBlur stdDeviation="12"/>
<feComposite in2="hardAlpha" operator="arithmetic" k2="-1" k3="1"/>
<feColorMatrix type="matrix" values="0 0 0 0 0.294118 0 0 0 0 0.619608 0 0 0 0 0.729412 0 0 0 0.9 0"/>
<feBlend mode="normal" in2="effect3_innerShadow_42_2197" result="effect4_innerShadow_42_2197"/>
<feColorMatrix in="SourceAlpha" type="matrix" values="0 0 0 0 0 0 0 0 0 0 0 0 0 0 0 0 0 0 127 0" result="hardAlpha"/>
<feOffset dx="-12" dy="-12"/>
<feGaussianBlur stdDeviation="12"/>
<feComposite in2="hardAlpha" operator="arithmetic" k2="-1" k3="1"/>
<feColorMatrix type="matrix" values="0 0 0 0 0.231373 0 0 0 0 0.486275 0 0 0 0 0.572549 0 0 0 0.2 0"/>
<feBlend mode="normal" in2="effect4_innerShadow_42_2197" result="effect5_innerShadow_42_2197"/>
<feColorMatrix in="SourceAlpha" type="matrix" values="0 0 0 0 0 0 0 0 0 0 0 0 0 0 0 0 0 0 127 0" result="hardAlpha"/>
<feOffset dx="12" dy="12"/>
<feGaussianBlur stdDeviation="12"/>
<feComposite in2="hardAlpha" operator="arithmetic" k2="-1" k3="1"/>
<feColorMatrix type="matrix" values="0 0 0 0 0.231373 0 0 0 0 0.486275 0 0 0 0 0.572549 0 0 0 0.2 0"/>
<feBlend mode="normal" in2="effect5_innerShadow_42_2197" result="effect6_innerShadow_42_2197"/>
</filter>
<clipPath id="clip0_42_2197">
<rect width="512" height="326" rx="25.466" fill="white"/>
</clipPath>
</defs>
</svg>
