<?xml version="1.0" encoding="UTF-8" standalone="no"?>
<svg
   viewBox="0 0 22 22"
   version="1.1"
   id="svg1"
   sodipodi:docname="edit-find-replace.svg"
   width="22"
   height="22"
   inkscape:version="1.4.4 (unknown)"
   xmlns:inkscape="http://www.inkscape.org/namespaces/inkscape"
   xmlns:sodipodi="http://sodipodi.sourceforge.net/DTD/sodipodi-0.dtd"
   xmlns="http://www.w3.org/2000/svg"
   xmlns:svg="http://www.w3.org/2000/svg">
  <sodipodi:namedview
     id="namedview1"
     pagecolor="#ffffff"
     bordercolor="#999999"
     borderopacity="1"
     inkscape:showpageshadow="2"
     inkscape:pageopacity="0"
     inkscape:pagecheckerboard="0"
     inkscape:deskcolor="#d1d1d1"
     inkscape:zoom="17.318182"
     inkscape:cx="13.742782"
     inkscape:cy="19.892388"
     inkscape:window-width="1920"
     inkscape:window-height="996"
     inkscape:window-x="0"
     inkscape:window-y="0"
     inkscape:window-maximized="1"
     inkscape:current-layer="svg1" />
  <defs
     id="defs3051">
    <style
       type="text/css"
       id="current-color-scheme">.ColorScheme-Text { color:#0a0b0c; }
</style>
  </defs>
  <path
     style="opacity:0.00100002;fill:#bac8df;fill-opacity:1"
     d="M 0,0 V 22 H 22 V 0 Z"
     id="path2" />
  <path
     d="m 11.698417,18.050032 c 0,0.580186 -0.469817,1.050008 -1.05,1.050008 -0.579684,0 -1.0499918,-0.469822 -1.0499918,-1.050008 0,-0.579686 0.4703078,-1.049992 1.0499918,-1.049992 0.580183,0 1.05,0.470306 1.05,1.049992 z"
     id="path72-3"
     style="fill:currentColor;fill-opacity:1;stroke-width:0.0125002"
     class="ColorScheme-Text " />
  <path
     d="m 14.409703,18.050032 c 0,0.580186 -0.469817,1.050008 -1.05,1.050008 -0.579684,0 -1.049992,-0.469822 -1.049992,-1.050008 0,-0.579686 0.470308,-1.049992 1.049992,-1.049992 0.580183,0 1.05,0.470306 1.05,1.049992 z"
     id="path72-3-6"
     style="fill:currentColor;fill-opacity:1;stroke-width:0.0125002"
     class="ColorScheme-Text " />
  <path
     d="m 17.120989,18.050032 c 0,0.580186 -0.469817,1.050008 -1.05,1.050008 -0.579684,0 -1.049992,-0.469822 -1.049992,-1.050008 0,-0.579686 0.470308,-1.049992 1.049992,-1.049992 0.580183,0 1.05,0.470306 1.05,1.049992 z"
     id="path72-3-6-1"
     style="fill:currentColor;fill-opacity:1;stroke-width:0.0125002"
     class="ColorScheme-Text " />
  <path
     d="m 13.25871,2.9999983 c -3.171258,3.09e-4 -5.7413957,2.57031 -5.7417037,5.741355 1.27e-4,1.3975547 0.50037,2.6774937 1.330289,3.6730177 l -1.177874,1.17782 c -0.0048,0.0052 -0.0061,0.0096 -0.01037,0.01484 -0.581295,-0.274854 -1.293114,-0.186854 -1.772667,0.292607 l -2.4283347,2.427349 c -0.6106656,0.610651 -0.6106656,1.603558 0,2.214183 0.6118113,0.611775 1.6024897,0.611775 2.2142907,0 l 2.428457,-2.427325 c 0.480807,-0.48078 0.568567,-1.192397 0.292136,-1.773907 0.0047,-0.0049 0.01018,-0.0058 0.01422,-0.009 l 1.177897,-1.178134 c 0.9955847,0.829792 2.2755917,1.329983 3.6732267,1.330107 3.171266,-3.2e-4 5.741366,-2.570313 5.741673,-5.7413058 7.4e-5,-3.171056 -2.570043,-5.741063 -5.741289,-5.741372 z m 0,9.3949117 c -2.016267,-8.78e-4 -3.6528367,-1.637441 -3.6538117,-3.6535277 0.0014,-2.0161541 1.6375207,-3.652703 3.6538117,-3.653619 2.016264,0.0016 3.652838,1.6374369 3.653806,3.653619 -0.0016,2.0160867 -1.637542,3.6525957 -3.653806,3.6535277 z"
     id="path2-3-6"
     style="fill:currentColor;fill-opacity:1;stroke-width:0.0312515"
     class="ColorScheme-Text" />
</svg>
