<?xml version="1.0" encoding="UTF-8" standalone="no"?>
<svg
   width="62"
   height="62"
   version="1"
   id="svg7"
   sodipodi:docname="filename-bpm-amarok.svg"
   inkscape:version="1.4.2 (unknown)"
   xmlns:inkscape="http://www.inkscape.org/namespaces/inkscape"
   xmlns:sodipodi="http://sodipodi.sourceforge.net/DTD/sodipodi-0.dtd"
   xmlns:xlink="http://www.w3.org/1999/xlink"
   xmlns="http://www.w3.org/2000/svg"
   xmlns:svg="http://www.w3.org/2000/svg">
  <defs
     id="defs7">
    <linearGradient
       id="linearGradient7"
       inkscape:collect="always">
      <stop
         style="stop-color:#384850;stop-opacity:1;"
         offset="0"
         id="stop8" />
      <stop
         style="stop-color:#566f7a;stop-opacity:1;"
         offset="0.58926034"
         id="stop10" />
      <stop
         style="stop-color:#ffffff;stop-opacity:1;"
         offset="0.86599815"
         id="stop11" />
      <stop
         style="stop-color:#eff2f6;stop-opacity:1;"
         offset="1"
         id="stop9" />
    </linearGradient>
    <linearGradient
       id="linearGradient1"
       inkscape:collect="always">
      <stop
         style="stop-color:#303c47;stop-opacity:1;"
         offset="0"
         id="stop5" />
      <stop
         style="stop-color:#363e48;stop-opacity:1;"
         offset="0.25046653"
         id="stop7" />
      <stop
         style="stop-color:#303c47;stop-opacity:1;"
         offset="0.91934216"
         id="stop12" />
      <stop
         style="stop-color:#303c47;stop-opacity:1;"
         offset="1"
         id="stop6" />
    </linearGradient>
    <linearGradient
       id="c-3"
       gradientUnits="userSpaceOnUse"
       x1="24.072048"
       x2="23.959682"
       y1="0.75082099"
       y2="46.056854">
      <stop
         offset="0"
         stop-color="#fff"
         id="stop3" />
      <stop
         offset="1"
         stop-color="#d9d9d9"
         id="stop4" />
    </linearGradient>
    <linearGradient
       id="b-6"
       gradientUnits="userSpaceOnUse"
       x1="29.203026"
       x2="34.121048"
       xlink:href="#a-7"
       y1="24.827356"
       y2="29.224836" />
    <linearGradient
       id="a-7">
      <stop
         offset="0"
         id="stop1" />
      <stop
         offset="1"
         stop-opacity="0"
         id="stop2" />
    </linearGradient>
    <linearGradient
       id="d"
       gradientUnits="userSpaceOnUse"
       x1="15.948756"
       x2="25.031786"
       xlink:href="#a-7"
       y1="23.618279"
       y2="33.69899" />
    <linearGradient
       id="e"
       gradientUnits="userSpaceOnUse"
       x1="21.990562"
       x2="29.320522"
       xlink:href="#a-7"
       y1="33.780373"
       y2="41.931858" />
    <linearGradient
       id="paint154_linear_890_11"
       x1="778"
       y1="812.29199"
       x2="788"
       y2="812.29199"
       gradientUnits="userSpaceOnUse"
       gradientTransform="translate(-751,-696)">
      <stop
         stop-color="#EFF2F6"
         id="stop1050" />
      <stop
         offset="0.600785"
         stop-color="#B7C6CD"
         id="stop1051" />
    </linearGradient>
    <linearGradient
       id="paint155_linear_890_11"
       x1="783"
       y1="813"
       x2="783"
       y2="817"
       gradientUnits="userSpaceOnUse"
       gradientTransform="translate(-751,-696)">
      <stop
         stop-color="#EFF2F6"
         id="stop1052" />
      <stop
         offset="0.734138"
         stop-color="#B7C6CD"
         id="stop1053" />
    </linearGradient>
    <radialGradient
       id="paint156_radial_890_11"
       cx="0"
       cy="0"
       r="1"
       gradientUnits="userSpaceOnUse"
       gradientTransform="matrix(27.999986,27.999976,-27.999986,27.999976,32.302392,33.999998)">
      <stop
         offset="0.60067803"
         stop-color="#B7C6CD"
         id="stop1054"
         style="stop-color:#424b58;stop-opacity:1;" />
      <stop
         offset="0.876735"
         stop-color="#EFF2F6"
         id="stop1055" />
    </radialGradient>
    <linearGradient
       id="paint157_linear_890_11"
       x1="796.84485"
       y1="799.43359"
       x2="768.90088"
       y2="770.81476"
       gradientUnits="userSpaceOnUse"
       gradientTransform="matrix(1.1666666,0,0,1.1666668,-881.19764,-881.8333)">
      <stop
         offset="0.00000057"
         stop-color="#2E2E41"
         id="stop1056"
         style="stop-color:#424b58;stop-opacity:1;" />
      <stop
         offset="0.71113902"
         stop-color="#566C80"
         id="stop1057"
         style="stop-color:#303c47;stop-opacity:1;" />
    </linearGradient>
    <linearGradient
       id="paint158_linear_890_11"
       x1="792"
       y1="794"
       x2="774"
       y2="776"
       gradientUnits="userSpaceOnUse"
       gradientTransform="translate(-751,-696)">
      <stop
         offset="0.304478"
         stop-color="#2E2E41"
         id="stop1058" />
      <stop
         offset="1"
         stop-color="#566C80"
         id="stop1059" />
    </linearGradient>
    <linearGradient
       id="paint159_linear_890_11"
       x1="788"
       y1="790"
       x2="778"
       y2="780"
       gradientUnits="userSpaceOnUse"
       gradientTransform="translate(-751,-696)">
      <stop
         offset="0.391394"
         stop-color="#5200FF"
         id="stop1060" />
      <stop
         offset="1"
         stop-color="#0085FF"
         id="stop1061" />
    </linearGradient>
    <linearGradient
       id="paint160_linear_890_11"
       x1="784"
       y1="798"
       x2="782"
       y2="796"
       gradientUnits="userSpaceOnUse"
       gradientTransform="translate(-751,-696)">
      <stop
         stop-color="#FF7E07"
         id="stop1062" />
      <stop
         offset="1"
         stop-color="#FFE607"
         id="stop1063" />
    </linearGradient>
    <linearGradient
       id="c-3-6"
       gradientUnits="userSpaceOnUse"
       x1="24.072048"
       x2="23.959682"
       y1="0.75082099"
       y2="46.056854"
       gradientTransform="matrix(0.91471346,0,0,0.90068147,9.0468769,9.3836444)">
      <stop
         offset="0"
         stop-color="#fff"
         id="stop3-2" />
      <stop
         offset="1"
         stop-color="#d9d9d9"
         id="stop4-9" />
    </linearGradient>
    <linearGradient
       id="b-6-1"
       gradientUnits="userSpaceOnUse"
       x1="29.203026"
       x2="34.121048"
       xlink:href="#a-7"
       y1="24.827356"
       y2="29.224836"
       gradientTransform="matrix(1.1104534,0,0,1.0934187,4.3491158,4.7861435)" />
    <linearGradient
       id="d-0"
       gradientUnits="userSpaceOnUse"
       x1="15.948756"
       x2="25.031786"
       xlink:href="#a-7"
       y1="23.618279"
       y2="33.69899"
       gradientTransform="matrix(1.1104534,0,0,1.0934187,4.3491158,4.7861435)" />
    <linearGradient
       id="e-9"
       gradientUnits="userSpaceOnUse"
       x1="21.990562"
       x2="29.320522"
       xlink:href="#a-7"
       y1="33.780373"
       y2="41.931858"
       gradientTransform="matrix(1.1104534,0,0,1.0934187,4.3491158,4.7861435)" />
    <linearGradient
       inkscape:collect="always"
       xlink:href="#linearGradient1"
       id="linearGradient6"
       x1="15.60323"
       y1="17.703012"
       x2="48.302387"
       y2="50"
       gradientUnits="userSpaceOnUse"
       gradientTransform="translate(-1.3023872,-3)" />
    <radialGradient
       inkscape:collect="always"
       xlink:href="#linearGradient7"
       id="radialGradient9"
       cx="32.302387"
       cy="34"
       fx="32.302387"
       fy="34"
       r="28"
       gradientUnits="userSpaceOnUse"
       gradientTransform="matrix(0.99999999,1,-1,0.99999999,32.697613,-35.302387)" />
    <radialGradient
       id="radialGradient867"
       cx="6.6805"
       cy="8.2870998"
       r="3.7376001"
       gradientTransform="matrix(4.8485492,0,0,4.8159411,-9.9298686,-9.7737847)"
       gradientUnits="userSpaceOnUse">
      <stop
         stop-color="#c8d7ea"
         stop-opacity=".99608"
         offset="0"
         id="stop1-5" />
      <stop
         stop-color="#91acd0"
         stop-opacity=".99608"
         offset="1"
         id="stop2-4" />
    </radialGradient>
    <linearGradient
       id="linearGradient8945"
       x1="3.8726001"
       x2="4.7592001"
       y1="-3.2832"
       y2="-2.3964"
       gradientTransform="matrix(1.3622,-0.36501,0.36501,1.3622,2.977,21.076)"
       gradientUnits="userSpaceOnUse">
      <stop
         stop-color="#bdc2cf"
         offset="0"
         id="stop3-7" />
      <stop
         stop-color="#eaf0f5"
         offset="1"
         id="stop4-4" />
    </linearGradient>
    <linearGradient
       id="linearGradient26151"
       x1="4.9973001"
       x2="6.1075001"
       y1="-4.6547999"
       y2="-3.5313001"
       gradientTransform="matrix(1.3622,-0.36501,0.36501,1.3622,2.977,21.076)"
       gradientUnits="userSpaceOnUse">
      <stop
         stop-color="#7dbc53"
         offset="0"
         id="stop5-4" />
      <stop
         stop-color="#93d159"
         offset=".11589"
         id="stop6-3" />
      <stop
         stop-color="#699d51"
         offset="1"
         id="stop7-0" />
    </linearGradient>
    <linearGradient
       id="b"
       x1="508.60422"
       x2="508.43216"
       y1="540.62714"
       y2="514.61823"
       gradientUnits="userSpaceOnUse"
       gradientTransform="matrix(1.3495084,0,0,1.3316133,-658.27534,-670.39511)">
      <stop
         stop-color="#ff9300"
         offset="0"
         id="stop3-3"
         style="stop-color:#af83f8;stop-opacity:1" />
      <stop
         stop-color="#ffd702"
         offset="1"
         id="stop4-6"
         style="stop-color:#fea75f;stop-opacity:1" />
    </linearGradient>
    <linearGradient
       id="paint0_linear_94_67"
       x1="12"
       y1="23"
       x2="12"
       y2="1"
       gradientUnits="userSpaceOnUse">
      <stop
         stop-color="#FD3A84"
         id="stop6-7"
         offset="0"
         style="stop-color:#d70253;stop-opacity:1;" />
      <stop
         offset="1"
         stop-color="#FFA68D"
         id="stop7-5"
         style="stop-color:#f93700;stop-opacity:1;" />
    </linearGradient>
    <linearGradient
       id="paint1_linear_94_67"
       x1="20.303499"
       y1="11.5934"
       x2="5.7847099"
       y2="6.0870199"
       gradientUnits="userSpaceOnUse">
      <stop
         stop-color="#FE7970"
         id="stop8-3" />
      <stop
         offset="1"
         stop-color="#DC3282"
         id="stop9-5" />
    </linearGradient>
    <linearGradient
       inkscape:collect="always"
       xlink:href="#paint1_linear_94_67"
       id="linearGradient2"
       gradientUnits="userSpaceOnUse"
       x1="20.303499"
       y1="11.5934"
       x2="5.7847099"
       y2="6.0870199" />
    <linearGradient
       inkscape:collect="always"
       xlink:href="#paint1_linear_94_67"
       id="linearGradient3"
       gradientUnits="userSpaceOnUse"
       x1="20.303499"
       y1="11.5934"
       x2="5.7847099"
       y2="6.0870199" />
  </defs>
  <sodipodi:namedview
     id="namedview7"
     pagecolor="#ffffff"
     bordercolor="#000000"
     borderopacity="0.25"
     inkscape:showpageshadow="2"
     inkscape:pageopacity="0.0"
     inkscape:pagecheckerboard="0"
     inkscape:deskcolor="#d1d1d1"
     inkscape:zoom="8.330602"
     inkscape:cx="9.7832065"
     inkscape:cy="40.633318"
     inkscape:window-width="1920"
     inkscape:window-height="998"
     inkscape:window-x="0"
     inkscape:window-y="0"
     inkscape:window-maximized="1"
     inkscape:current-layer="svg7" />
  <path
     d="M 59,31 C 59,46.46415 46.464172,59 30.999998,59 15.535835,59 3.0000001,46.46415 3.0000001,31 3.0000001,15.535835 15.535835,3 30.999998,3 46.464172,3 59,15.535835 59,31 Z"
     id="path154"
     style="fill:url(#radialGradient9)" />
  <path
     d="m 54.333333,31 c 0,12.88701 -10.446332,23.33332 -23.333335,23.33332 C 18.112999,54.33332 7.6666671,43.88701 7.6666671,31 7.6666671,18.113006 18.112999,7.666668 30.999998,7.666668 43.887001,7.666668 54.333333,18.113006 54.333333,31 Z"
     id="path155"
     style="fill:url(#linearGradient6)" />
  <g
     id="g17"
     transform="matrix(2.1212273,0,0,2.1212273,5.5452704,5.5454407)">
    <path
       opacity="0.5"
       d="M 12,23 C 18.0753,23 23,18.0753 23,12 23,5.9247 18.0753,1 12,1 5.9247,1 1,5.9247 1,12 1,18.0753 5.9247,23 12,23 Z"
       id="path1-1"
       style="fill:url(#paint0_linear_94_67);opacity:1" />
    <path
       d="M 11.9989,3.20001 C 9.95745,3.20411 7.98409,3.94364 6.41408,5.28613 6.27142,5.40817 6.26082,5.62524 6.39129,5.76043 l 0.79909,0.8287 c 0.11806,0.12254 0.31075,0.13358 0.4422,0.02518 1.23916,-1.022 2.77762,-1.58339 4.36692,-1.5878 1.8685,0 3.6603,0.7697 4.9815,2.13966 1.2499,1.29638 1.9818,3.02943 2.057,4.85353 0.0071,0.1749 0.1512,0.3126 0.3259,0.3126 h 1.11 c 0.1844,0 0.3325,-0.153 0.3258,-0.3377 C 20.7178,9.6954 19.8011,7.50773 18.2265,5.87487 16.575,4.16224 14.3343,3.20009 11.9989,3.20001 Z"
       fill="url(#paint1_linear_94_67)"
       id="path2"
       style="fill:url(#linearGradient2)" />
    <path
       d="M 4.37306,8.83281 C 4.20787,8.66136 3.92076,8.71896 3.83436,8.94073 3.45563,9.91258 3.241,10.9455 3.2002,11.9937 c -0.00719,0.1848 0.14082,0.3386 0.32592,0.3386 h 1.10966 c 0.17457,0 0.31819,-0.1371 0.32585,-0.3117 C 4.99102,11.3517 5.10898,10.6898 5.31227,10.054 5.3488,9.93956 5.31966,9.81461 5.2364,9.72812 Z"
       fill="url(#paint2_linear_94_67)"
       id="path3"
       style="fill:url(#linearGradient3)" />
    <path
       d="M 11.9989,3.20001 C 9.95745,3.20411 7.98409,3.94364 6.41408,5.28613 6.27142,5.40817 6.26082,5.62524 6.39129,5.76043 l 0.79909,0.8287 c 0.11806,0.12254 0.31075,0.13358 0.4422,0.02518 1.23916,-1.022 2.77762,-1.58339 4.36692,-1.5878 1.8685,0 3.6603,0.7697 4.9815,2.13966 1.2499,1.29638 1.9818,3.02943 2.057,4.85353 0.0071,0.1749 0.1512,0.3126 0.3259,0.3126 h 1.11 c 0.1844,0 0.3325,-0.153 0.3258,-0.3377 C 20.7178,9.6954 19.8011,7.50773 18.2265,5.87487 16.575,4.16224 14.3343,3.20009 11.9989,3.20001 Z"
       id="path4"
       style="fill:#ffffff;fill-opacity:1" />
    <path
       d="M 5.2364,9.72812 C 5.31966,9.81461 5.3488,9.93956 5.31227,10.054 5.10898,10.6898 4.99102,11.3517 4.96163,12.0206 4.95397,12.1952 4.81035,12.3323 4.63578,12.3323 H 3.52612 c -0.1851,0 -0.33311,-0.1538 -0.32592,-0.3386 C 3.241,10.9455 3.45563,9.91258 3.83436,8.94073 3.92076,8.71896 4.20787,8.66136 4.37306,8.83281 Z"
       id="path5"
       style="fill:#ffffff;fill-opacity:1" />
    <path
       fill-rule="evenodd"
       clip-rule="evenodd"
       d="M 13.9198,8.51995 C 13.5137,8.41512 13.091,8.61921 12.921,9.00332 Z M 12.921,9.00332 9.85928,15.9046 c -0.2779,0.3289 -0.47136,0.7189 -0.56283,1.1379 l -3.8e-4,0.0017 -0.00173,0.0081 C 9.2928,17.0594 9.29143,17.0667 9.29022,17.0739 l -0.01699,0.102 c -0.20395,1.2392 0.50112,2.4505 1.70287,2.7463 1.1926,0.2923 2.3871,-0.4376 2.8164,-1.6017 l 0.0163,-0.0441 c 0.0117,-0.031 0.0194,-0.0606 0.0245,-0.088 l 0.0299,-0.0904 c 0.0042,-0.0128 0.0079,-0.0258 0.0111,-0.039 l 0.0027,-0.0113 c 0.0619,-0.2562 0.0868,-0.5207 0.0715,-0.7826 -0.0036,-0.0616 -0.0074,-0.1183 -0.011,-0.1713 -0.0119,-0.1747 -0.0211,-0.3099 -0.0087,-0.4512 L 14.5604,9.42557 C 14.5967,9.00833 14.3261,8.62482 13.9198,8.51995 m -1.847541,7.844665 c -0.2444,-0.0589 -0.652659,-0.0094 -0.771159,0.257585 -0.08722,0.06589 -0.181926,0.12777 -0.211907,0.246981 -0.1181,0.1316 -0.178293,0.336419 -0.216993,0.499519 l -0.0114,0.0687 c -0.0832,0.5069 0.2056,0.8498 0.4995,0.922 0.2909,0.0712 0.7071,-0.0903 0.9006,-0.5403 l 0.0585,-0.1776 c 0.0333,-0.1539 0.09152,-0.415041 0.06052,-0.550341 m -0.307663,-0.726544 c 0.2416,0.0582 0.332363,0.444044 0.307663,0.726544 z"
       id="path6"
       sodipodi:nodetypes="cccccccccccccccccscccccccccccccccc"
       style="fill:#ffffff;fill-opacity:1" />
  </g>
</svg>
